%TF.GenerationSoftware,KiCad,Pcbnew,7.0.7+dfsg-1*%
%TF.CreationDate,2023-09-19T15:46:09+10:00*%
%TF.ProjectId,fan-controller,66616e2d-636f-46e7-9472-6f6c6c65722e,rev?*%
%TF.SameCoordinates,Original*%
%TF.FileFunction,Drillmap*%
%TF.FilePolarity,Positive*%
%FSLAX45Y45*%
G04 Gerber Fmt 4.5, Leading zero omitted, Abs format (unit mm)*
G04 Created by KiCad (PCBNEW 7.0.7+dfsg-1) date 2023-09-19 15:46:09*
%MOMM*%
%LPD*%
G01*
G04 APERTURE LIST*
%ADD10C,0.100000*%
%ADD11C,0.200000*%
%ADD12C,0.110000*%
%ADD13C,0.210000*%
%ADD14C,0.350000*%
%ADD15C,0.400000*%
G04 APERTURE END LIST*
D10*
X16870000Y-12675000D02*
G75*
G03*
X17000000Y-12545000I0J130000D01*
G01*
X10000000Y-10130000D02*
X10000000Y-12545000D01*
X10130000Y-10000000D02*
G75*
G03*
X10000000Y-10130000I0J-130000D01*
G01*
X16870000Y-10000000D02*
X10130000Y-10000000D01*
X17000000Y-10130000D02*
G75*
G03*
X16870000Y-10000000I-130000J0D01*
G01*
X10130000Y-12675000D02*
X16870000Y-12675000D01*
X17000000Y-12545000D02*
X17000000Y-10130000D01*
X10000000Y-12545000D02*
G75*
G03*
X10130000Y-12675000I130000J0D01*
G01*
D11*
D12*
X11502000Y-10206500D02*
X11612000Y-10316500D01*
X11612000Y-10206500D02*
X11502000Y-10316500D01*
X12772000Y-10206500D02*
X12882000Y-10316500D01*
X12882000Y-10206500D02*
X12772000Y-10316500D01*
X14105500Y-12353000D02*
X14215500Y-12463000D01*
X14215500Y-12353000D02*
X14105500Y-12463000D01*
X15312000Y-12353000D02*
X15422000Y-12463000D01*
X15422000Y-12353000D02*
X15312000Y-12463000D01*
D13*
X11027000Y-11557000D02*
G75*
G03*
X11027000Y-11557000I-105000J0D01*
G01*
X13059000Y-11557000D02*
G75*
G03*
X13059000Y-11557000I-105000J0D01*
G01*
D14*
X10300000Y-10162500D02*
X10300000Y-10512500D01*
X10125000Y-10337500D02*
X10475000Y-10337500D01*
X10300000Y-12162500D02*
X10300000Y-12512500D01*
X10125000Y-12337500D02*
X10475000Y-12337500D01*
X16700000Y-10162500D02*
X16700000Y-10512500D01*
X16525000Y-10337500D02*
X16875000Y-10337500D01*
X16700000Y-12162500D02*
X16700000Y-12512500D01*
X16525000Y-12337500D02*
X16875000Y-12337500D01*
D15*
X11579423Y-12478423D02*
X11579423Y-12195577D01*
X11296577Y-12195577D01*
X11296577Y-12478423D01*
X11579423Y-12478423D01*
X12579423Y-12478423D02*
X12579423Y-12195577D01*
X12296577Y-12195577D01*
X12296577Y-12478423D01*
X12579423Y-12478423D01*
D11*
X10255777Y-12991484D02*
X10255777Y-12791484D01*
X10255777Y-12791484D02*
X10303396Y-12791484D01*
X10303396Y-12791484D02*
X10331967Y-12801008D01*
X10331967Y-12801008D02*
X10351015Y-12820055D01*
X10351015Y-12820055D02*
X10360539Y-12839103D01*
X10360539Y-12839103D02*
X10370063Y-12877198D01*
X10370063Y-12877198D02*
X10370063Y-12905769D01*
X10370063Y-12905769D02*
X10360539Y-12943865D01*
X10360539Y-12943865D02*
X10351015Y-12962912D01*
X10351015Y-12962912D02*
X10331967Y-12981960D01*
X10331967Y-12981960D02*
X10303396Y-12991484D01*
X10303396Y-12991484D02*
X10255777Y-12991484D01*
X10455777Y-12991484D02*
X10455777Y-12858150D01*
X10455777Y-12896246D02*
X10465301Y-12877198D01*
X10465301Y-12877198D02*
X10474824Y-12867674D01*
X10474824Y-12867674D02*
X10493872Y-12858150D01*
X10493872Y-12858150D02*
X10512920Y-12858150D01*
X10579586Y-12991484D02*
X10579586Y-12858150D01*
X10579586Y-12791484D02*
X10570063Y-12801008D01*
X10570063Y-12801008D02*
X10579586Y-12810531D01*
X10579586Y-12810531D02*
X10589110Y-12801008D01*
X10589110Y-12801008D02*
X10579586Y-12791484D01*
X10579586Y-12791484D02*
X10579586Y-12810531D01*
X10703396Y-12991484D02*
X10684348Y-12981960D01*
X10684348Y-12981960D02*
X10674824Y-12962912D01*
X10674824Y-12962912D02*
X10674824Y-12791484D01*
X10808158Y-12991484D02*
X10789110Y-12981960D01*
X10789110Y-12981960D02*
X10779586Y-12962912D01*
X10779586Y-12962912D02*
X10779586Y-12791484D01*
X11036729Y-12991484D02*
X11036729Y-12791484D01*
X11036729Y-12791484D02*
X11103396Y-12934341D01*
X11103396Y-12934341D02*
X11170063Y-12791484D01*
X11170063Y-12791484D02*
X11170063Y-12991484D01*
X11351015Y-12991484D02*
X11351015Y-12886722D01*
X11351015Y-12886722D02*
X11341491Y-12867674D01*
X11341491Y-12867674D02*
X11322443Y-12858150D01*
X11322443Y-12858150D02*
X11284348Y-12858150D01*
X11284348Y-12858150D02*
X11265301Y-12867674D01*
X11351015Y-12981960D02*
X11331967Y-12991484D01*
X11331967Y-12991484D02*
X11284348Y-12991484D01*
X11284348Y-12991484D02*
X11265301Y-12981960D01*
X11265301Y-12981960D02*
X11255777Y-12962912D01*
X11255777Y-12962912D02*
X11255777Y-12943865D01*
X11255777Y-12943865D02*
X11265301Y-12924817D01*
X11265301Y-12924817D02*
X11284348Y-12915293D01*
X11284348Y-12915293D02*
X11331967Y-12915293D01*
X11331967Y-12915293D02*
X11351015Y-12905769D01*
X11446253Y-12858150D02*
X11446253Y-13058150D01*
X11446253Y-12867674D02*
X11465301Y-12858150D01*
X11465301Y-12858150D02*
X11503396Y-12858150D01*
X11503396Y-12858150D02*
X11522443Y-12867674D01*
X11522443Y-12867674D02*
X11531967Y-12877198D01*
X11531967Y-12877198D02*
X11541491Y-12896246D01*
X11541491Y-12896246D02*
X11541491Y-12953388D01*
X11541491Y-12953388D02*
X11531967Y-12972436D01*
X11531967Y-12972436D02*
X11522443Y-12981960D01*
X11522443Y-12981960D02*
X11503396Y-12991484D01*
X11503396Y-12991484D02*
X11465301Y-12991484D01*
X11465301Y-12991484D02*
X11446253Y-12981960D01*
X11627205Y-12972436D02*
X11636729Y-12981960D01*
X11636729Y-12981960D02*
X11627205Y-12991484D01*
X11627205Y-12991484D02*
X11617682Y-12981960D01*
X11617682Y-12981960D02*
X11627205Y-12972436D01*
X11627205Y-12972436D02*
X11627205Y-12991484D01*
X11627205Y-12867674D02*
X11636729Y-12877198D01*
X11636729Y-12877198D02*
X11627205Y-12886722D01*
X11627205Y-12886722D02*
X11617682Y-12877198D01*
X11617682Y-12877198D02*
X11627205Y-12867674D01*
X11627205Y-12867674D02*
X11627205Y-12886722D01*
D12*
X9885000Y-13265000D02*
X9995000Y-13375000D01*
X9995000Y-13265000D02*
X9885000Y-13375000D01*
D11*
X10360539Y-13411484D02*
X10246253Y-13411484D01*
X10303396Y-13411484D02*
X10303396Y-13211484D01*
X10303396Y-13211484D02*
X10284348Y-13240055D01*
X10284348Y-13240055D02*
X10265301Y-13259103D01*
X10265301Y-13259103D02*
X10246253Y-13268627D01*
X10446253Y-13392436D02*
X10455777Y-13401960D01*
X10455777Y-13401960D02*
X10446253Y-13411484D01*
X10446253Y-13411484D02*
X10436729Y-13401960D01*
X10436729Y-13401960D02*
X10446253Y-13392436D01*
X10446253Y-13392436D02*
X10446253Y-13411484D01*
X10646253Y-13411484D02*
X10531967Y-13411484D01*
X10589110Y-13411484D02*
X10589110Y-13211484D01*
X10589110Y-13211484D02*
X10570063Y-13240055D01*
X10570063Y-13240055D02*
X10551015Y-13259103D01*
X10551015Y-13259103D02*
X10531967Y-13268627D01*
X10770063Y-13211484D02*
X10789110Y-13211484D01*
X10789110Y-13211484D02*
X10808158Y-13221008D01*
X10808158Y-13221008D02*
X10817682Y-13230531D01*
X10817682Y-13230531D02*
X10827205Y-13249579D01*
X10827205Y-13249579D02*
X10836729Y-13287674D01*
X10836729Y-13287674D02*
X10836729Y-13335293D01*
X10836729Y-13335293D02*
X10827205Y-13373388D01*
X10827205Y-13373388D02*
X10817682Y-13392436D01*
X10817682Y-13392436D02*
X10808158Y-13401960D01*
X10808158Y-13401960D02*
X10789110Y-13411484D01*
X10789110Y-13411484D02*
X10770063Y-13411484D01*
X10770063Y-13411484D02*
X10751015Y-13401960D01*
X10751015Y-13401960D02*
X10741491Y-13392436D01*
X10741491Y-13392436D02*
X10731967Y-13373388D01*
X10731967Y-13373388D02*
X10722444Y-13335293D01*
X10722444Y-13335293D02*
X10722444Y-13287674D01*
X10722444Y-13287674D02*
X10731967Y-13249579D01*
X10731967Y-13249579D02*
X10741491Y-13230531D01*
X10741491Y-13230531D02*
X10751015Y-13221008D01*
X10751015Y-13221008D02*
X10770063Y-13211484D01*
X10960539Y-13211484D02*
X10979586Y-13211484D01*
X10979586Y-13211484D02*
X10998634Y-13221008D01*
X10998634Y-13221008D02*
X11008158Y-13230531D01*
X11008158Y-13230531D02*
X11017682Y-13249579D01*
X11017682Y-13249579D02*
X11027205Y-13287674D01*
X11027205Y-13287674D02*
X11027205Y-13335293D01*
X11027205Y-13335293D02*
X11017682Y-13373388D01*
X11017682Y-13373388D02*
X11008158Y-13392436D01*
X11008158Y-13392436D02*
X10998634Y-13401960D01*
X10998634Y-13401960D02*
X10979586Y-13411484D01*
X10979586Y-13411484D02*
X10960539Y-13411484D01*
X10960539Y-13411484D02*
X10941491Y-13401960D01*
X10941491Y-13401960D02*
X10931967Y-13392436D01*
X10931967Y-13392436D02*
X10922444Y-13373388D01*
X10922444Y-13373388D02*
X10912920Y-13335293D01*
X10912920Y-13335293D02*
X10912920Y-13287674D01*
X10912920Y-13287674D02*
X10922444Y-13249579D01*
X10922444Y-13249579D02*
X10931967Y-13230531D01*
X10931967Y-13230531D02*
X10941491Y-13221008D01*
X10941491Y-13221008D02*
X10960539Y-13211484D01*
X11112920Y-13411484D02*
X11112920Y-13278150D01*
X11112920Y-13297198D02*
X11122444Y-13287674D01*
X11122444Y-13287674D02*
X11141491Y-13278150D01*
X11141491Y-13278150D02*
X11170063Y-13278150D01*
X11170063Y-13278150D02*
X11189110Y-13287674D01*
X11189110Y-13287674D02*
X11198634Y-13306722D01*
X11198634Y-13306722D02*
X11198634Y-13411484D01*
X11198634Y-13306722D02*
X11208158Y-13287674D01*
X11208158Y-13287674D02*
X11227205Y-13278150D01*
X11227205Y-13278150D02*
X11255777Y-13278150D01*
X11255777Y-13278150D02*
X11274824Y-13287674D01*
X11274824Y-13287674D02*
X11284348Y-13306722D01*
X11284348Y-13306722D02*
X11284348Y-13411484D01*
X11379586Y-13411484D02*
X11379586Y-13278150D01*
X11379586Y-13297198D02*
X11389110Y-13287674D01*
X11389110Y-13287674D02*
X11408158Y-13278150D01*
X11408158Y-13278150D02*
X11436729Y-13278150D01*
X11436729Y-13278150D02*
X11455777Y-13287674D01*
X11455777Y-13287674D02*
X11465301Y-13306722D01*
X11465301Y-13306722D02*
X11465301Y-13411484D01*
X11465301Y-13306722D02*
X11474824Y-13287674D01*
X11474824Y-13287674D02*
X11493872Y-13278150D01*
X11493872Y-13278150D02*
X11522443Y-13278150D01*
X11522443Y-13278150D02*
X11541491Y-13287674D01*
X11541491Y-13287674D02*
X11551015Y-13306722D01*
X11551015Y-13306722D02*
X11551015Y-13411484D01*
X11941491Y-13201960D02*
X11770063Y-13459103D01*
X12198634Y-13211484D02*
X12217682Y-13211484D01*
X12217682Y-13211484D02*
X12236729Y-13221008D01*
X12236729Y-13221008D02*
X12246253Y-13230531D01*
X12246253Y-13230531D02*
X12255777Y-13249579D01*
X12255777Y-13249579D02*
X12265301Y-13287674D01*
X12265301Y-13287674D02*
X12265301Y-13335293D01*
X12265301Y-13335293D02*
X12255777Y-13373388D01*
X12255777Y-13373388D02*
X12246253Y-13392436D01*
X12246253Y-13392436D02*
X12236729Y-13401960D01*
X12236729Y-13401960D02*
X12217682Y-13411484D01*
X12217682Y-13411484D02*
X12198634Y-13411484D01*
X12198634Y-13411484D02*
X12179586Y-13401960D01*
X12179586Y-13401960D02*
X12170063Y-13392436D01*
X12170063Y-13392436D02*
X12160539Y-13373388D01*
X12160539Y-13373388D02*
X12151015Y-13335293D01*
X12151015Y-13335293D02*
X12151015Y-13287674D01*
X12151015Y-13287674D02*
X12160539Y-13249579D01*
X12160539Y-13249579D02*
X12170063Y-13230531D01*
X12170063Y-13230531D02*
X12179586Y-13221008D01*
X12179586Y-13221008D02*
X12198634Y-13211484D01*
X12351015Y-13392436D02*
X12360539Y-13401960D01*
X12360539Y-13401960D02*
X12351015Y-13411484D01*
X12351015Y-13411484D02*
X12341491Y-13401960D01*
X12341491Y-13401960D02*
X12351015Y-13392436D01*
X12351015Y-13392436D02*
X12351015Y-13411484D01*
X12484348Y-13211484D02*
X12503396Y-13211484D01*
X12503396Y-13211484D02*
X12522444Y-13221008D01*
X12522444Y-13221008D02*
X12531967Y-13230531D01*
X12531967Y-13230531D02*
X12541491Y-13249579D01*
X12541491Y-13249579D02*
X12551015Y-13287674D01*
X12551015Y-13287674D02*
X12551015Y-13335293D01*
X12551015Y-13335293D02*
X12541491Y-13373388D01*
X12541491Y-13373388D02*
X12531967Y-13392436D01*
X12531967Y-13392436D02*
X12522444Y-13401960D01*
X12522444Y-13401960D02*
X12503396Y-13411484D01*
X12503396Y-13411484D02*
X12484348Y-13411484D01*
X12484348Y-13411484D02*
X12465301Y-13401960D01*
X12465301Y-13401960D02*
X12455777Y-13392436D01*
X12455777Y-13392436D02*
X12446253Y-13373388D01*
X12446253Y-13373388D02*
X12436729Y-13335293D01*
X12436729Y-13335293D02*
X12436729Y-13287674D01*
X12436729Y-13287674D02*
X12446253Y-13249579D01*
X12446253Y-13249579D02*
X12455777Y-13230531D01*
X12455777Y-13230531D02*
X12465301Y-13221008D01*
X12465301Y-13221008D02*
X12484348Y-13211484D01*
X12722444Y-13278150D02*
X12722444Y-13411484D01*
X12674825Y-13201960D02*
X12627206Y-13344817D01*
X12627206Y-13344817D02*
X12751015Y-13344817D01*
X12808158Y-13211484D02*
X12931967Y-13211484D01*
X12931967Y-13211484D02*
X12865301Y-13287674D01*
X12865301Y-13287674D02*
X12893872Y-13287674D01*
X12893872Y-13287674D02*
X12912920Y-13297198D01*
X12912920Y-13297198D02*
X12922444Y-13306722D01*
X12922444Y-13306722D02*
X12931967Y-13325769D01*
X12931967Y-13325769D02*
X12931967Y-13373388D01*
X12931967Y-13373388D02*
X12922444Y-13392436D01*
X12922444Y-13392436D02*
X12912920Y-13401960D01*
X12912920Y-13401960D02*
X12893872Y-13411484D01*
X12893872Y-13411484D02*
X12836729Y-13411484D01*
X12836729Y-13411484D02*
X12817682Y-13401960D01*
X12817682Y-13401960D02*
X12808158Y-13392436D01*
X12998634Y-13211484D02*
X13122444Y-13211484D01*
X13122444Y-13211484D02*
X13055777Y-13287674D01*
X13055777Y-13287674D02*
X13084348Y-13287674D01*
X13084348Y-13287674D02*
X13103396Y-13297198D01*
X13103396Y-13297198D02*
X13112920Y-13306722D01*
X13112920Y-13306722D02*
X13122444Y-13325769D01*
X13122444Y-13325769D02*
X13122444Y-13373388D01*
X13122444Y-13373388D02*
X13112920Y-13392436D01*
X13112920Y-13392436D02*
X13103396Y-13401960D01*
X13103396Y-13401960D02*
X13084348Y-13411484D01*
X13084348Y-13411484D02*
X13027206Y-13411484D01*
X13027206Y-13411484D02*
X13008158Y-13401960D01*
X13008158Y-13401960D02*
X12998634Y-13392436D01*
X13198634Y-13211484D02*
X13198634Y-13249579D01*
X13274825Y-13211484D02*
X13274825Y-13249579D01*
X13570063Y-13487674D02*
X13560539Y-13478150D01*
X13560539Y-13478150D02*
X13541491Y-13449579D01*
X13541491Y-13449579D02*
X13531968Y-13430531D01*
X13531968Y-13430531D02*
X13522444Y-13401960D01*
X13522444Y-13401960D02*
X13512920Y-13354341D01*
X13512920Y-13354341D02*
X13512920Y-13316246D01*
X13512920Y-13316246D02*
X13522444Y-13268627D01*
X13522444Y-13268627D02*
X13531968Y-13240055D01*
X13531968Y-13240055D02*
X13541491Y-13221008D01*
X13541491Y-13221008D02*
X13560539Y-13192436D01*
X13560539Y-13192436D02*
X13570063Y-13182912D01*
X13731968Y-13278150D02*
X13731968Y-13411484D01*
X13684348Y-13201960D02*
X13636729Y-13344817D01*
X13636729Y-13344817D02*
X13760539Y-13344817D01*
X13989110Y-13411484D02*
X13989110Y-13211484D01*
X14074825Y-13411484D02*
X14074825Y-13306722D01*
X14074825Y-13306722D02*
X14065301Y-13287674D01*
X14065301Y-13287674D02*
X14046253Y-13278150D01*
X14046253Y-13278150D02*
X14017682Y-13278150D01*
X14017682Y-13278150D02*
X13998634Y-13287674D01*
X13998634Y-13287674D02*
X13989110Y-13297198D01*
X14198634Y-13411484D02*
X14179587Y-13401960D01*
X14179587Y-13401960D02*
X14170063Y-13392436D01*
X14170063Y-13392436D02*
X14160539Y-13373388D01*
X14160539Y-13373388D02*
X14160539Y-13316246D01*
X14160539Y-13316246D02*
X14170063Y-13297198D01*
X14170063Y-13297198D02*
X14179587Y-13287674D01*
X14179587Y-13287674D02*
X14198634Y-13278150D01*
X14198634Y-13278150D02*
X14227206Y-13278150D01*
X14227206Y-13278150D02*
X14246253Y-13287674D01*
X14246253Y-13287674D02*
X14255777Y-13297198D01*
X14255777Y-13297198D02*
X14265301Y-13316246D01*
X14265301Y-13316246D02*
X14265301Y-13373388D01*
X14265301Y-13373388D02*
X14255777Y-13392436D01*
X14255777Y-13392436D02*
X14246253Y-13401960D01*
X14246253Y-13401960D02*
X14227206Y-13411484D01*
X14227206Y-13411484D02*
X14198634Y-13411484D01*
X14379587Y-13411484D02*
X14360539Y-13401960D01*
X14360539Y-13401960D02*
X14351015Y-13382912D01*
X14351015Y-13382912D02*
X14351015Y-13211484D01*
X14531968Y-13401960D02*
X14512920Y-13411484D01*
X14512920Y-13411484D02*
X14474825Y-13411484D01*
X14474825Y-13411484D02*
X14455777Y-13401960D01*
X14455777Y-13401960D02*
X14446253Y-13382912D01*
X14446253Y-13382912D02*
X14446253Y-13306722D01*
X14446253Y-13306722D02*
X14455777Y-13287674D01*
X14455777Y-13287674D02*
X14474825Y-13278150D01*
X14474825Y-13278150D02*
X14512920Y-13278150D01*
X14512920Y-13278150D02*
X14531968Y-13287674D01*
X14531968Y-13287674D02*
X14541491Y-13306722D01*
X14541491Y-13306722D02*
X14541491Y-13325769D01*
X14541491Y-13325769D02*
X14446253Y-13344817D01*
X14617682Y-13401960D02*
X14636730Y-13411484D01*
X14636730Y-13411484D02*
X14674825Y-13411484D01*
X14674825Y-13411484D02*
X14693872Y-13401960D01*
X14693872Y-13401960D02*
X14703396Y-13382912D01*
X14703396Y-13382912D02*
X14703396Y-13373388D01*
X14703396Y-13373388D02*
X14693872Y-13354341D01*
X14693872Y-13354341D02*
X14674825Y-13344817D01*
X14674825Y-13344817D02*
X14646253Y-13344817D01*
X14646253Y-13344817D02*
X14627206Y-13335293D01*
X14627206Y-13335293D02*
X14617682Y-13316246D01*
X14617682Y-13316246D02*
X14617682Y-13306722D01*
X14617682Y-13306722D02*
X14627206Y-13287674D01*
X14627206Y-13287674D02*
X14646253Y-13278150D01*
X14646253Y-13278150D02*
X14674825Y-13278150D01*
X14674825Y-13278150D02*
X14693872Y-13287674D01*
X14770063Y-13487674D02*
X14779587Y-13478150D01*
X14779587Y-13478150D02*
X14798634Y-13449579D01*
X14798634Y-13449579D02*
X14808158Y-13430531D01*
X14808158Y-13430531D02*
X14817682Y-13401960D01*
X14817682Y-13401960D02*
X14827206Y-13354341D01*
X14827206Y-13354341D02*
X14827206Y-13316246D01*
X14827206Y-13316246D02*
X14817682Y-13268627D01*
X14817682Y-13268627D02*
X14808158Y-13240055D01*
X14808158Y-13240055D02*
X14798634Y-13221008D01*
X14798634Y-13221008D02*
X14779587Y-13192436D01*
X14779587Y-13192436D02*
X14770063Y-13182912D01*
X15131968Y-13487674D02*
X15122444Y-13478150D01*
X15122444Y-13478150D02*
X15103396Y-13449579D01*
X15103396Y-13449579D02*
X15093872Y-13430531D01*
X15093872Y-13430531D02*
X15084349Y-13401960D01*
X15084349Y-13401960D02*
X15074825Y-13354341D01*
X15074825Y-13354341D02*
X15074825Y-13316246D01*
X15074825Y-13316246D02*
X15084349Y-13268627D01*
X15084349Y-13268627D02*
X15093872Y-13240055D01*
X15093872Y-13240055D02*
X15103396Y-13221008D01*
X15103396Y-13221008D02*
X15122444Y-13192436D01*
X15122444Y-13192436D02*
X15131968Y-13182912D01*
X15208158Y-13278150D02*
X15208158Y-13411484D01*
X15208158Y-13297198D02*
X15217682Y-13287674D01*
X15217682Y-13287674D02*
X15236730Y-13278150D01*
X15236730Y-13278150D02*
X15265301Y-13278150D01*
X15265301Y-13278150D02*
X15284349Y-13287674D01*
X15284349Y-13287674D02*
X15293872Y-13306722D01*
X15293872Y-13306722D02*
X15293872Y-13411484D01*
X15417682Y-13411484D02*
X15398634Y-13401960D01*
X15398634Y-13401960D02*
X15389111Y-13392436D01*
X15389111Y-13392436D02*
X15379587Y-13373388D01*
X15379587Y-13373388D02*
X15379587Y-13316246D01*
X15379587Y-13316246D02*
X15389111Y-13297198D01*
X15389111Y-13297198D02*
X15398634Y-13287674D01*
X15398634Y-13287674D02*
X15417682Y-13278150D01*
X15417682Y-13278150D02*
X15446253Y-13278150D01*
X15446253Y-13278150D02*
X15465301Y-13287674D01*
X15465301Y-13287674D02*
X15474825Y-13297198D01*
X15474825Y-13297198D02*
X15484349Y-13316246D01*
X15484349Y-13316246D02*
X15484349Y-13373388D01*
X15484349Y-13373388D02*
X15474825Y-13392436D01*
X15474825Y-13392436D02*
X15465301Y-13401960D01*
X15465301Y-13401960D02*
X15446253Y-13411484D01*
X15446253Y-13411484D02*
X15417682Y-13411484D01*
X15541492Y-13278150D02*
X15617682Y-13278150D01*
X15570063Y-13211484D02*
X15570063Y-13382912D01*
X15570063Y-13382912D02*
X15579587Y-13401960D01*
X15579587Y-13401960D02*
X15598634Y-13411484D01*
X15598634Y-13411484D02*
X15617682Y-13411484D01*
X15836730Y-13278150D02*
X15836730Y-13478150D01*
X15836730Y-13287674D02*
X15855777Y-13278150D01*
X15855777Y-13278150D02*
X15893873Y-13278150D01*
X15893873Y-13278150D02*
X15912920Y-13287674D01*
X15912920Y-13287674D02*
X15922444Y-13297198D01*
X15922444Y-13297198D02*
X15931968Y-13316246D01*
X15931968Y-13316246D02*
X15931968Y-13373388D01*
X15931968Y-13373388D02*
X15922444Y-13392436D01*
X15922444Y-13392436D02*
X15912920Y-13401960D01*
X15912920Y-13401960D02*
X15893873Y-13411484D01*
X15893873Y-13411484D02*
X15855777Y-13411484D01*
X15855777Y-13411484D02*
X15836730Y-13401960D01*
X16046253Y-13411484D02*
X16027206Y-13401960D01*
X16027206Y-13401960D02*
X16017682Y-13382912D01*
X16017682Y-13382912D02*
X16017682Y-13211484D01*
X16208158Y-13411484D02*
X16208158Y-13306722D01*
X16208158Y-13306722D02*
X16198634Y-13287674D01*
X16198634Y-13287674D02*
X16179587Y-13278150D01*
X16179587Y-13278150D02*
X16141492Y-13278150D01*
X16141492Y-13278150D02*
X16122444Y-13287674D01*
X16208158Y-13401960D02*
X16189111Y-13411484D01*
X16189111Y-13411484D02*
X16141492Y-13411484D01*
X16141492Y-13411484D02*
X16122444Y-13401960D01*
X16122444Y-13401960D02*
X16112920Y-13382912D01*
X16112920Y-13382912D02*
X16112920Y-13363865D01*
X16112920Y-13363865D02*
X16122444Y-13344817D01*
X16122444Y-13344817D02*
X16141492Y-13335293D01*
X16141492Y-13335293D02*
X16189111Y-13335293D01*
X16189111Y-13335293D02*
X16208158Y-13325769D01*
X16274825Y-13278150D02*
X16351015Y-13278150D01*
X16303396Y-13211484D02*
X16303396Y-13382912D01*
X16303396Y-13382912D02*
X16312920Y-13401960D01*
X16312920Y-13401960D02*
X16331968Y-13411484D01*
X16331968Y-13411484D02*
X16351015Y-13411484D01*
X16493873Y-13401960D02*
X16474825Y-13411484D01*
X16474825Y-13411484D02*
X16436730Y-13411484D01*
X16436730Y-13411484D02*
X16417682Y-13401960D01*
X16417682Y-13401960D02*
X16408158Y-13382912D01*
X16408158Y-13382912D02*
X16408158Y-13306722D01*
X16408158Y-13306722D02*
X16417682Y-13287674D01*
X16417682Y-13287674D02*
X16436730Y-13278150D01*
X16436730Y-13278150D02*
X16474825Y-13278150D01*
X16474825Y-13278150D02*
X16493873Y-13287674D01*
X16493873Y-13287674D02*
X16503396Y-13306722D01*
X16503396Y-13306722D02*
X16503396Y-13325769D01*
X16503396Y-13325769D02*
X16408158Y-13344817D01*
X16674825Y-13411484D02*
X16674825Y-13211484D01*
X16674825Y-13401960D02*
X16655777Y-13411484D01*
X16655777Y-13411484D02*
X16617682Y-13411484D01*
X16617682Y-13411484D02*
X16598634Y-13401960D01*
X16598634Y-13401960D02*
X16589111Y-13392436D01*
X16589111Y-13392436D02*
X16579587Y-13373388D01*
X16579587Y-13373388D02*
X16579587Y-13316246D01*
X16579587Y-13316246D02*
X16589111Y-13297198D01*
X16589111Y-13297198D02*
X16598634Y-13287674D01*
X16598634Y-13287674D02*
X16617682Y-13278150D01*
X16617682Y-13278150D02*
X16655777Y-13278150D01*
X16655777Y-13278150D02*
X16674825Y-13287674D01*
X16751015Y-13487674D02*
X16760539Y-13478150D01*
X16760539Y-13478150D02*
X16779587Y-13449579D01*
X16779587Y-13449579D02*
X16789111Y-13430531D01*
X16789111Y-13430531D02*
X16798635Y-13401960D01*
X16798635Y-13401960D02*
X16808158Y-13354341D01*
X16808158Y-13354341D02*
X16808158Y-13316246D01*
X16808158Y-13316246D02*
X16798635Y-13268627D01*
X16798635Y-13268627D02*
X16789111Y-13240055D01*
X16789111Y-13240055D02*
X16779587Y-13221008D01*
X16779587Y-13221008D02*
X16760539Y-13192436D01*
X16760539Y-13192436D02*
X16751015Y-13182912D01*
X9995000Y-13584000D02*
G75*
G03*
X9995000Y-13584000I-100000J0D01*
G01*
X10246253Y-13494531D02*
X10255777Y-13485008D01*
X10255777Y-13485008D02*
X10274824Y-13475484D01*
X10274824Y-13475484D02*
X10322444Y-13475484D01*
X10322444Y-13475484D02*
X10341491Y-13485008D01*
X10341491Y-13485008D02*
X10351015Y-13494531D01*
X10351015Y-13494531D02*
X10360539Y-13513579D01*
X10360539Y-13513579D02*
X10360539Y-13532627D01*
X10360539Y-13532627D02*
X10351015Y-13561198D01*
X10351015Y-13561198D02*
X10236729Y-13675484D01*
X10236729Y-13675484D02*
X10360539Y-13675484D01*
X10446253Y-13656436D02*
X10455777Y-13665960D01*
X10455777Y-13665960D02*
X10446253Y-13675484D01*
X10446253Y-13675484D02*
X10436729Y-13665960D01*
X10436729Y-13665960D02*
X10446253Y-13656436D01*
X10446253Y-13656436D02*
X10446253Y-13675484D01*
X10646253Y-13675484D02*
X10531967Y-13675484D01*
X10589110Y-13675484D02*
X10589110Y-13475484D01*
X10589110Y-13475484D02*
X10570063Y-13504055D01*
X10570063Y-13504055D02*
X10551015Y-13523103D01*
X10551015Y-13523103D02*
X10531967Y-13532627D01*
X10770063Y-13475484D02*
X10789110Y-13475484D01*
X10789110Y-13475484D02*
X10808158Y-13485008D01*
X10808158Y-13485008D02*
X10817682Y-13494531D01*
X10817682Y-13494531D02*
X10827205Y-13513579D01*
X10827205Y-13513579D02*
X10836729Y-13551674D01*
X10836729Y-13551674D02*
X10836729Y-13599293D01*
X10836729Y-13599293D02*
X10827205Y-13637388D01*
X10827205Y-13637388D02*
X10817682Y-13656436D01*
X10817682Y-13656436D02*
X10808158Y-13665960D01*
X10808158Y-13665960D02*
X10789110Y-13675484D01*
X10789110Y-13675484D02*
X10770063Y-13675484D01*
X10770063Y-13675484D02*
X10751015Y-13665960D01*
X10751015Y-13665960D02*
X10741491Y-13656436D01*
X10741491Y-13656436D02*
X10731967Y-13637388D01*
X10731967Y-13637388D02*
X10722444Y-13599293D01*
X10722444Y-13599293D02*
X10722444Y-13551674D01*
X10722444Y-13551674D02*
X10731967Y-13513579D01*
X10731967Y-13513579D02*
X10741491Y-13494531D01*
X10741491Y-13494531D02*
X10751015Y-13485008D01*
X10751015Y-13485008D02*
X10770063Y-13475484D01*
X10960539Y-13475484D02*
X10979586Y-13475484D01*
X10979586Y-13475484D02*
X10998634Y-13485008D01*
X10998634Y-13485008D02*
X11008158Y-13494531D01*
X11008158Y-13494531D02*
X11017682Y-13513579D01*
X11017682Y-13513579D02*
X11027205Y-13551674D01*
X11027205Y-13551674D02*
X11027205Y-13599293D01*
X11027205Y-13599293D02*
X11017682Y-13637388D01*
X11017682Y-13637388D02*
X11008158Y-13656436D01*
X11008158Y-13656436D02*
X10998634Y-13665960D01*
X10998634Y-13665960D02*
X10979586Y-13675484D01*
X10979586Y-13675484D02*
X10960539Y-13675484D01*
X10960539Y-13675484D02*
X10941491Y-13665960D01*
X10941491Y-13665960D02*
X10931967Y-13656436D01*
X10931967Y-13656436D02*
X10922444Y-13637388D01*
X10922444Y-13637388D02*
X10912920Y-13599293D01*
X10912920Y-13599293D02*
X10912920Y-13551674D01*
X10912920Y-13551674D02*
X10922444Y-13513579D01*
X10922444Y-13513579D02*
X10931967Y-13494531D01*
X10931967Y-13494531D02*
X10941491Y-13485008D01*
X10941491Y-13485008D02*
X10960539Y-13475484D01*
X11112920Y-13675484D02*
X11112920Y-13542150D01*
X11112920Y-13561198D02*
X11122444Y-13551674D01*
X11122444Y-13551674D02*
X11141491Y-13542150D01*
X11141491Y-13542150D02*
X11170063Y-13542150D01*
X11170063Y-13542150D02*
X11189110Y-13551674D01*
X11189110Y-13551674D02*
X11198634Y-13570722D01*
X11198634Y-13570722D02*
X11198634Y-13675484D01*
X11198634Y-13570722D02*
X11208158Y-13551674D01*
X11208158Y-13551674D02*
X11227205Y-13542150D01*
X11227205Y-13542150D02*
X11255777Y-13542150D01*
X11255777Y-13542150D02*
X11274824Y-13551674D01*
X11274824Y-13551674D02*
X11284348Y-13570722D01*
X11284348Y-13570722D02*
X11284348Y-13675484D01*
X11379586Y-13675484D02*
X11379586Y-13542150D01*
X11379586Y-13561198D02*
X11389110Y-13551674D01*
X11389110Y-13551674D02*
X11408158Y-13542150D01*
X11408158Y-13542150D02*
X11436729Y-13542150D01*
X11436729Y-13542150D02*
X11455777Y-13551674D01*
X11455777Y-13551674D02*
X11465301Y-13570722D01*
X11465301Y-13570722D02*
X11465301Y-13675484D01*
X11465301Y-13570722D02*
X11474824Y-13551674D01*
X11474824Y-13551674D02*
X11493872Y-13542150D01*
X11493872Y-13542150D02*
X11522443Y-13542150D01*
X11522443Y-13542150D02*
X11541491Y-13551674D01*
X11541491Y-13551674D02*
X11551015Y-13570722D01*
X11551015Y-13570722D02*
X11551015Y-13675484D01*
X11941491Y-13465960D02*
X11770063Y-13723103D01*
X12198634Y-13475484D02*
X12217682Y-13475484D01*
X12217682Y-13475484D02*
X12236729Y-13485008D01*
X12236729Y-13485008D02*
X12246253Y-13494531D01*
X12246253Y-13494531D02*
X12255777Y-13513579D01*
X12255777Y-13513579D02*
X12265301Y-13551674D01*
X12265301Y-13551674D02*
X12265301Y-13599293D01*
X12265301Y-13599293D02*
X12255777Y-13637388D01*
X12255777Y-13637388D02*
X12246253Y-13656436D01*
X12246253Y-13656436D02*
X12236729Y-13665960D01*
X12236729Y-13665960D02*
X12217682Y-13675484D01*
X12217682Y-13675484D02*
X12198634Y-13675484D01*
X12198634Y-13675484D02*
X12179586Y-13665960D01*
X12179586Y-13665960D02*
X12170063Y-13656436D01*
X12170063Y-13656436D02*
X12160539Y-13637388D01*
X12160539Y-13637388D02*
X12151015Y-13599293D01*
X12151015Y-13599293D02*
X12151015Y-13551674D01*
X12151015Y-13551674D02*
X12160539Y-13513579D01*
X12160539Y-13513579D02*
X12170063Y-13494531D01*
X12170063Y-13494531D02*
X12179586Y-13485008D01*
X12179586Y-13485008D02*
X12198634Y-13475484D01*
X12351015Y-13656436D02*
X12360539Y-13665960D01*
X12360539Y-13665960D02*
X12351015Y-13675484D01*
X12351015Y-13675484D02*
X12341491Y-13665960D01*
X12341491Y-13665960D02*
X12351015Y-13656436D01*
X12351015Y-13656436D02*
X12351015Y-13675484D01*
X12484348Y-13475484D02*
X12503396Y-13475484D01*
X12503396Y-13475484D02*
X12522444Y-13485008D01*
X12522444Y-13485008D02*
X12531967Y-13494531D01*
X12531967Y-13494531D02*
X12541491Y-13513579D01*
X12541491Y-13513579D02*
X12551015Y-13551674D01*
X12551015Y-13551674D02*
X12551015Y-13599293D01*
X12551015Y-13599293D02*
X12541491Y-13637388D01*
X12541491Y-13637388D02*
X12531967Y-13656436D01*
X12531967Y-13656436D02*
X12522444Y-13665960D01*
X12522444Y-13665960D02*
X12503396Y-13675484D01*
X12503396Y-13675484D02*
X12484348Y-13675484D01*
X12484348Y-13675484D02*
X12465301Y-13665960D01*
X12465301Y-13665960D02*
X12455777Y-13656436D01*
X12455777Y-13656436D02*
X12446253Y-13637388D01*
X12446253Y-13637388D02*
X12436729Y-13599293D01*
X12436729Y-13599293D02*
X12436729Y-13551674D01*
X12436729Y-13551674D02*
X12446253Y-13513579D01*
X12446253Y-13513579D02*
X12455777Y-13494531D01*
X12455777Y-13494531D02*
X12465301Y-13485008D01*
X12465301Y-13485008D02*
X12484348Y-13475484D01*
X12665301Y-13561198D02*
X12646253Y-13551674D01*
X12646253Y-13551674D02*
X12636729Y-13542150D01*
X12636729Y-13542150D02*
X12627206Y-13523103D01*
X12627206Y-13523103D02*
X12627206Y-13513579D01*
X12627206Y-13513579D02*
X12636729Y-13494531D01*
X12636729Y-13494531D02*
X12646253Y-13485008D01*
X12646253Y-13485008D02*
X12665301Y-13475484D01*
X12665301Y-13475484D02*
X12703396Y-13475484D01*
X12703396Y-13475484D02*
X12722444Y-13485008D01*
X12722444Y-13485008D02*
X12731967Y-13494531D01*
X12731967Y-13494531D02*
X12741491Y-13513579D01*
X12741491Y-13513579D02*
X12741491Y-13523103D01*
X12741491Y-13523103D02*
X12731967Y-13542150D01*
X12731967Y-13542150D02*
X12722444Y-13551674D01*
X12722444Y-13551674D02*
X12703396Y-13561198D01*
X12703396Y-13561198D02*
X12665301Y-13561198D01*
X12665301Y-13561198D02*
X12646253Y-13570722D01*
X12646253Y-13570722D02*
X12636729Y-13580246D01*
X12636729Y-13580246D02*
X12627206Y-13599293D01*
X12627206Y-13599293D02*
X12627206Y-13637388D01*
X12627206Y-13637388D02*
X12636729Y-13656436D01*
X12636729Y-13656436D02*
X12646253Y-13665960D01*
X12646253Y-13665960D02*
X12665301Y-13675484D01*
X12665301Y-13675484D02*
X12703396Y-13675484D01*
X12703396Y-13675484D02*
X12722444Y-13665960D01*
X12722444Y-13665960D02*
X12731967Y-13656436D01*
X12731967Y-13656436D02*
X12741491Y-13637388D01*
X12741491Y-13637388D02*
X12741491Y-13599293D01*
X12741491Y-13599293D02*
X12731967Y-13580246D01*
X12731967Y-13580246D02*
X12722444Y-13570722D01*
X12722444Y-13570722D02*
X12703396Y-13561198D01*
X12817682Y-13494531D02*
X12827206Y-13485008D01*
X12827206Y-13485008D02*
X12846253Y-13475484D01*
X12846253Y-13475484D02*
X12893872Y-13475484D01*
X12893872Y-13475484D02*
X12912920Y-13485008D01*
X12912920Y-13485008D02*
X12922444Y-13494531D01*
X12922444Y-13494531D02*
X12931967Y-13513579D01*
X12931967Y-13513579D02*
X12931967Y-13532627D01*
X12931967Y-13532627D02*
X12922444Y-13561198D01*
X12922444Y-13561198D02*
X12808158Y-13675484D01*
X12808158Y-13675484D02*
X12931967Y-13675484D01*
X12998634Y-13475484D02*
X13131967Y-13475484D01*
X13131967Y-13475484D02*
X13046253Y-13675484D01*
X13198634Y-13475484D02*
X13198634Y-13513579D01*
X13274825Y-13475484D02*
X13274825Y-13513579D01*
X13570063Y-13751674D02*
X13560539Y-13742150D01*
X13560539Y-13742150D02*
X13541491Y-13713579D01*
X13541491Y-13713579D02*
X13531968Y-13694531D01*
X13531968Y-13694531D02*
X13522444Y-13665960D01*
X13522444Y-13665960D02*
X13512920Y-13618341D01*
X13512920Y-13618341D02*
X13512920Y-13580246D01*
X13512920Y-13580246D02*
X13522444Y-13532627D01*
X13522444Y-13532627D02*
X13531968Y-13504055D01*
X13531968Y-13504055D02*
X13541491Y-13485008D01*
X13541491Y-13485008D02*
X13560539Y-13456436D01*
X13560539Y-13456436D02*
X13570063Y-13446912D01*
X13636729Y-13494531D02*
X13646253Y-13485008D01*
X13646253Y-13485008D02*
X13665301Y-13475484D01*
X13665301Y-13475484D02*
X13712920Y-13475484D01*
X13712920Y-13475484D02*
X13731968Y-13485008D01*
X13731968Y-13485008D02*
X13741491Y-13494531D01*
X13741491Y-13494531D02*
X13751015Y-13513579D01*
X13751015Y-13513579D02*
X13751015Y-13532627D01*
X13751015Y-13532627D02*
X13741491Y-13561198D01*
X13741491Y-13561198D02*
X13627206Y-13675484D01*
X13627206Y-13675484D02*
X13751015Y-13675484D01*
X13989110Y-13675484D02*
X13989110Y-13475484D01*
X14074825Y-13675484D02*
X14074825Y-13570722D01*
X14074825Y-13570722D02*
X14065301Y-13551674D01*
X14065301Y-13551674D02*
X14046253Y-13542150D01*
X14046253Y-13542150D02*
X14017682Y-13542150D01*
X14017682Y-13542150D02*
X13998634Y-13551674D01*
X13998634Y-13551674D02*
X13989110Y-13561198D01*
X14198634Y-13675484D02*
X14179587Y-13665960D01*
X14179587Y-13665960D02*
X14170063Y-13656436D01*
X14170063Y-13656436D02*
X14160539Y-13637388D01*
X14160539Y-13637388D02*
X14160539Y-13580246D01*
X14160539Y-13580246D02*
X14170063Y-13561198D01*
X14170063Y-13561198D02*
X14179587Y-13551674D01*
X14179587Y-13551674D02*
X14198634Y-13542150D01*
X14198634Y-13542150D02*
X14227206Y-13542150D01*
X14227206Y-13542150D02*
X14246253Y-13551674D01*
X14246253Y-13551674D02*
X14255777Y-13561198D01*
X14255777Y-13561198D02*
X14265301Y-13580246D01*
X14265301Y-13580246D02*
X14265301Y-13637388D01*
X14265301Y-13637388D02*
X14255777Y-13656436D01*
X14255777Y-13656436D02*
X14246253Y-13665960D01*
X14246253Y-13665960D02*
X14227206Y-13675484D01*
X14227206Y-13675484D02*
X14198634Y-13675484D01*
X14379587Y-13675484D02*
X14360539Y-13665960D01*
X14360539Y-13665960D02*
X14351015Y-13646912D01*
X14351015Y-13646912D02*
X14351015Y-13475484D01*
X14531968Y-13665960D02*
X14512920Y-13675484D01*
X14512920Y-13675484D02*
X14474825Y-13675484D01*
X14474825Y-13675484D02*
X14455777Y-13665960D01*
X14455777Y-13665960D02*
X14446253Y-13646912D01*
X14446253Y-13646912D02*
X14446253Y-13570722D01*
X14446253Y-13570722D02*
X14455777Y-13551674D01*
X14455777Y-13551674D02*
X14474825Y-13542150D01*
X14474825Y-13542150D02*
X14512920Y-13542150D01*
X14512920Y-13542150D02*
X14531968Y-13551674D01*
X14531968Y-13551674D02*
X14541491Y-13570722D01*
X14541491Y-13570722D02*
X14541491Y-13589769D01*
X14541491Y-13589769D02*
X14446253Y-13608817D01*
X14617682Y-13665960D02*
X14636730Y-13675484D01*
X14636730Y-13675484D02*
X14674825Y-13675484D01*
X14674825Y-13675484D02*
X14693872Y-13665960D01*
X14693872Y-13665960D02*
X14703396Y-13646912D01*
X14703396Y-13646912D02*
X14703396Y-13637388D01*
X14703396Y-13637388D02*
X14693872Y-13618341D01*
X14693872Y-13618341D02*
X14674825Y-13608817D01*
X14674825Y-13608817D02*
X14646253Y-13608817D01*
X14646253Y-13608817D02*
X14627206Y-13599293D01*
X14627206Y-13599293D02*
X14617682Y-13580246D01*
X14617682Y-13580246D02*
X14617682Y-13570722D01*
X14617682Y-13570722D02*
X14627206Y-13551674D01*
X14627206Y-13551674D02*
X14646253Y-13542150D01*
X14646253Y-13542150D02*
X14674825Y-13542150D01*
X14674825Y-13542150D02*
X14693872Y-13551674D01*
X14770063Y-13751674D02*
X14779587Y-13742150D01*
X14779587Y-13742150D02*
X14798634Y-13713579D01*
X14798634Y-13713579D02*
X14808158Y-13694531D01*
X14808158Y-13694531D02*
X14817682Y-13665960D01*
X14817682Y-13665960D02*
X14827206Y-13618341D01*
X14827206Y-13618341D02*
X14827206Y-13580246D01*
X14827206Y-13580246D02*
X14817682Y-13532627D01*
X14817682Y-13532627D02*
X14808158Y-13504055D01*
X14808158Y-13504055D02*
X14798634Y-13485008D01*
X14798634Y-13485008D02*
X14779587Y-13456436D01*
X14779587Y-13456436D02*
X14770063Y-13446912D01*
X15131968Y-13751674D02*
X15122444Y-13742150D01*
X15122444Y-13742150D02*
X15103396Y-13713579D01*
X15103396Y-13713579D02*
X15093872Y-13694531D01*
X15093872Y-13694531D02*
X15084349Y-13665960D01*
X15084349Y-13665960D02*
X15074825Y-13618341D01*
X15074825Y-13618341D02*
X15074825Y-13580246D01*
X15074825Y-13580246D02*
X15084349Y-13532627D01*
X15084349Y-13532627D02*
X15093872Y-13504055D01*
X15093872Y-13504055D02*
X15103396Y-13485008D01*
X15103396Y-13485008D02*
X15122444Y-13456436D01*
X15122444Y-13456436D02*
X15131968Y-13446912D01*
X15208158Y-13542150D02*
X15208158Y-13675484D01*
X15208158Y-13561198D02*
X15217682Y-13551674D01*
X15217682Y-13551674D02*
X15236730Y-13542150D01*
X15236730Y-13542150D02*
X15265301Y-13542150D01*
X15265301Y-13542150D02*
X15284349Y-13551674D01*
X15284349Y-13551674D02*
X15293872Y-13570722D01*
X15293872Y-13570722D02*
X15293872Y-13675484D01*
X15417682Y-13675484D02*
X15398634Y-13665960D01*
X15398634Y-13665960D02*
X15389111Y-13656436D01*
X15389111Y-13656436D02*
X15379587Y-13637388D01*
X15379587Y-13637388D02*
X15379587Y-13580246D01*
X15379587Y-13580246D02*
X15389111Y-13561198D01*
X15389111Y-13561198D02*
X15398634Y-13551674D01*
X15398634Y-13551674D02*
X15417682Y-13542150D01*
X15417682Y-13542150D02*
X15446253Y-13542150D01*
X15446253Y-13542150D02*
X15465301Y-13551674D01*
X15465301Y-13551674D02*
X15474825Y-13561198D01*
X15474825Y-13561198D02*
X15484349Y-13580246D01*
X15484349Y-13580246D02*
X15484349Y-13637388D01*
X15484349Y-13637388D02*
X15474825Y-13656436D01*
X15474825Y-13656436D02*
X15465301Y-13665960D01*
X15465301Y-13665960D02*
X15446253Y-13675484D01*
X15446253Y-13675484D02*
X15417682Y-13675484D01*
X15541492Y-13542150D02*
X15617682Y-13542150D01*
X15570063Y-13475484D02*
X15570063Y-13646912D01*
X15570063Y-13646912D02*
X15579587Y-13665960D01*
X15579587Y-13665960D02*
X15598634Y-13675484D01*
X15598634Y-13675484D02*
X15617682Y-13675484D01*
X15836730Y-13542150D02*
X15836730Y-13742150D01*
X15836730Y-13551674D02*
X15855777Y-13542150D01*
X15855777Y-13542150D02*
X15893873Y-13542150D01*
X15893873Y-13542150D02*
X15912920Y-13551674D01*
X15912920Y-13551674D02*
X15922444Y-13561198D01*
X15922444Y-13561198D02*
X15931968Y-13580246D01*
X15931968Y-13580246D02*
X15931968Y-13637388D01*
X15931968Y-13637388D02*
X15922444Y-13656436D01*
X15922444Y-13656436D02*
X15912920Y-13665960D01*
X15912920Y-13665960D02*
X15893873Y-13675484D01*
X15893873Y-13675484D02*
X15855777Y-13675484D01*
X15855777Y-13675484D02*
X15836730Y-13665960D01*
X16046253Y-13675484D02*
X16027206Y-13665960D01*
X16027206Y-13665960D02*
X16017682Y-13646912D01*
X16017682Y-13646912D02*
X16017682Y-13475484D01*
X16208158Y-13675484D02*
X16208158Y-13570722D01*
X16208158Y-13570722D02*
X16198634Y-13551674D01*
X16198634Y-13551674D02*
X16179587Y-13542150D01*
X16179587Y-13542150D02*
X16141492Y-13542150D01*
X16141492Y-13542150D02*
X16122444Y-13551674D01*
X16208158Y-13665960D02*
X16189111Y-13675484D01*
X16189111Y-13675484D02*
X16141492Y-13675484D01*
X16141492Y-13675484D02*
X16122444Y-13665960D01*
X16122444Y-13665960D02*
X16112920Y-13646912D01*
X16112920Y-13646912D02*
X16112920Y-13627865D01*
X16112920Y-13627865D02*
X16122444Y-13608817D01*
X16122444Y-13608817D02*
X16141492Y-13599293D01*
X16141492Y-13599293D02*
X16189111Y-13599293D01*
X16189111Y-13599293D02*
X16208158Y-13589769D01*
X16274825Y-13542150D02*
X16351015Y-13542150D01*
X16303396Y-13475484D02*
X16303396Y-13646912D01*
X16303396Y-13646912D02*
X16312920Y-13665960D01*
X16312920Y-13665960D02*
X16331968Y-13675484D01*
X16331968Y-13675484D02*
X16351015Y-13675484D01*
X16493873Y-13665960D02*
X16474825Y-13675484D01*
X16474825Y-13675484D02*
X16436730Y-13675484D01*
X16436730Y-13675484D02*
X16417682Y-13665960D01*
X16417682Y-13665960D02*
X16408158Y-13646912D01*
X16408158Y-13646912D02*
X16408158Y-13570722D01*
X16408158Y-13570722D02*
X16417682Y-13551674D01*
X16417682Y-13551674D02*
X16436730Y-13542150D01*
X16436730Y-13542150D02*
X16474825Y-13542150D01*
X16474825Y-13542150D02*
X16493873Y-13551674D01*
X16493873Y-13551674D02*
X16503396Y-13570722D01*
X16503396Y-13570722D02*
X16503396Y-13589769D01*
X16503396Y-13589769D02*
X16408158Y-13608817D01*
X16674825Y-13675484D02*
X16674825Y-13475484D01*
X16674825Y-13665960D02*
X16655777Y-13675484D01*
X16655777Y-13675484D02*
X16617682Y-13675484D01*
X16617682Y-13675484D02*
X16598634Y-13665960D01*
X16598634Y-13665960D02*
X16589111Y-13656436D01*
X16589111Y-13656436D02*
X16579587Y-13637388D01*
X16579587Y-13637388D02*
X16579587Y-13580246D01*
X16579587Y-13580246D02*
X16589111Y-13561198D01*
X16589111Y-13561198D02*
X16598634Y-13551674D01*
X16598634Y-13551674D02*
X16617682Y-13542150D01*
X16617682Y-13542150D02*
X16655777Y-13542150D01*
X16655777Y-13542150D02*
X16674825Y-13551674D01*
X16751015Y-13751674D02*
X16760539Y-13742150D01*
X16760539Y-13742150D02*
X16779587Y-13713579D01*
X16779587Y-13713579D02*
X16789111Y-13694531D01*
X16789111Y-13694531D02*
X16798635Y-13665960D01*
X16798635Y-13665960D02*
X16808158Y-13618341D01*
X16808158Y-13618341D02*
X16808158Y-13580246D01*
X16808158Y-13580246D02*
X16798635Y-13532627D01*
X16798635Y-13532627D02*
X16789111Y-13504055D01*
X16789111Y-13504055D02*
X16779587Y-13485008D01*
X16779587Y-13485008D02*
X16760539Y-13456436D01*
X16760539Y-13456436D02*
X16751015Y-13446912D01*
X9895000Y-13804000D02*
X9895000Y-14004000D01*
X9795000Y-13904000D02*
X9995000Y-13904000D01*
X10236729Y-13795484D02*
X10360539Y-13795484D01*
X10360539Y-13795484D02*
X10293872Y-13871674D01*
X10293872Y-13871674D02*
X10322444Y-13871674D01*
X10322444Y-13871674D02*
X10341491Y-13881198D01*
X10341491Y-13881198D02*
X10351015Y-13890722D01*
X10351015Y-13890722D02*
X10360539Y-13909769D01*
X10360539Y-13909769D02*
X10360539Y-13957388D01*
X10360539Y-13957388D02*
X10351015Y-13976436D01*
X10351015Y-13976436D02*
X10341491Y-13985960D01*
X10341491Y-13985960D02*
X10322444Y-13995484D01*
X10322444Y-13995484D02*
X10265301Y-13995484D01*
X10265301Y-13995484D02*
X10246253Y-13985960D01*
X10246253Y-13985960D02*
X10236729Y-13976436D01*
X10446253Y-13976436D02*
X10455777Y-13985960D01*
X10455777Y-13985960D02*
X10446253Y-13995484D01*
X10446253Y-13995484D02*
X10436729Y-13985960D01*
X10436729Y-13985960D02*
X10446253Y-13976436D01*
X10446253Y-13976436D02*
X10446253Y-13995484D01*
X10636729Y-13795484D02*
X10541491Y-13795484D01*
X10541491Y-13795484D02*
X10531967Y-13890722D01*
X10531967Y-13890722D02*
X10541491Y-13881198D01*
X10541491Y-13881198D02*
X10560539Y-13871674D01*
X10560539Y-13871674D02*
X10608158Y-13871674D01*
X10608158Y-13871674D02*
X10627205Y-13881198D01*
X10627205Y-13881198D02*
X10636729Y-13890722D01*
X10636729Y-13890722D02*
X10646253Y-13909769D01*
X10646253Y-13909769D02*
X10646253Y-13957388D01*
X10646253Y-13957388D02*
X10636729Y-13976436D01*
X10636729Y-13976436D02*
X10627205Y-13985960D01*
X10627205Y-13985960D02*
X10608158Y-13995484D01*
X10608158Y-13995484D02*
X10560539Y-13995484D01*
X10560539Y-13995484D02*
X10541491Y-13985960D01*
X10541491Y-13985960D02*
X10531967Y-13976436D01*
X10770063Y-13795484D02*
X10789110Y-13795484D01*
X10789110Y-13795484D02*
X10808158Y-13805008D01*
X10808158Y-13805008D02*
X10817682Y-13814531D01*
X10817682Y-13814531D02*
X10827205Y-13833579D01*
X10827205Y-13833579D02*
X10836729Y-13871674D01*
X10836729Y-13871674D02*
X10836729Y-13919293D01*
X10836729Y-13919293D02*
X10827205Y-13957388D01*
X10827205Y-13957388D02*
X10817682Y-13976436D01*
X10817682Y-13976436D02*
X10808158Y-13985960D01*
X10808158Y-13985960D02*
X10789110Y-13995484D01*
X10789110Y-13995484D02*
X10770063Y-13995484D01*
X10770063Y-13995484D02*
X10751015Y-13985960D01*
X10751015Y-13985960D02*
X10741491Y-13976436D01*
X10741491Y-13976436D02*
X10731967Y-13957388D01*
X10731967Y-13957388D02*
X10722444Y-13919293D01*
X10722444Y-13919293D02*
X10722444Y-13871674D01*
X10722444Y-13871674D02*
X10731967Y-13833579D01*
X10731967Y-13833579D02*
X10741491Y-13814531D01*
X10741491Y-13814531D02*
X10751015Y-13805008D01*
X10751015Y-13805008D02*
X10770063Y-13795484D01*
X10960539Y-13795484D02*
X10979586Y-13795484D01*
X10979586Y-13795484D02*
X10998634Y-13805008D01*
X10998634Y-13805008D02*
X11008158Y-13814531D01*
X11008158Y-13814531D02*
X11017682Y-13833579D01*
X11017682Y-13833579D02*
X11027205Y-13871674D01*
X11027205Y-13871674D02*
X11027205Y-13919293D01*
X11027205Y-13919293D02*
X11017682Y-13957388D01*
X11017682Y-13957388D02*
X11008158Y-13976436D01*
X11008158Y-13976436D02*
X10998634Y-13985960D01*
X10998634Y-13985960D02*
X10979586Y-13995484D01*
X10979586Y-13995484D02*
X10960539Y-13995484D01*
X10960539Y-13995484D02*
X10941491Y-13985960D01*
X10941491Y-13985960D02*
X10931967Y-13976436D01*
X10931967Y-13976436D02*
X10922444Y-13957388D01*
X10922444Y-13957388D02*
X10912920Y-13919293D01*
X10912920Y-13919293D02*
X10912920Y-13871674D01*
X10912920Y-13871674D02*
X10922444Y-13833579D01*
X10922444Y-13833579D02*
X10931967Y-13814531D01*
X10931967Y-13814531D02*
X10941491Y-13805008D01*
X10941491Y-13805008D02*
X10960539Y-13795484D01*
X11112920Y-13995484D02*
X11112920Y-13862150D01*
X11112920Y-13881198D02*
X11122444Y-13871674D01*
X11122444Y-13871674D02*
X11141491Y-13862150D01*
X11141491Y-13862150D02*
X11170063Y-13862150D01*
X11170063Y-13862150D02*
X11189110Y-13871674D01*
X11189110Y-13871674D02*
X11198634Y-13890722D01*
X11198634Y-13890722D02*
X11198634Y-13995484D01*
X11198634Y-13890722D02*
X11208158Y-13871674D01*
X11208158Y-13871674D02*
X11227205Y-13862150D01*
X11227205Y-13862150D02*
X11255777Y-13862150D01*
X11255777Y-13862150D02*
X11274824Y-13871674D01*
X11274824Y-13871674D02*
X11284348Y-13890722D01*
X11284348Y-13890722D02*
X11284348Y-13995484D01*
X11379586Y-13995484D02*
X11379586Y-13862150D01*
X11379586Y-13881198D02*
X11389110Y-13871674D01*
X11389110Y-13871674D02*
X11408158Y-13862150D01*
X11408158Y-13862150D02*
X11436729Y-13862150D01*
X11436729Y-13862150D02*
X11455777Y-13871674D01*
X11455777Y-13871674D02*
X11465301Y-13890722D01*
X11465301Y-13890722D02*
X11465301Y-13995484D01*
X11465301Y-13890722D02*
X11474824Y-13871674D01*
X11474824Y-13871674D02*
X11493872Y-13862150D01*
X11493872Y-13862150D02*
X11522443Y-13862150D01*
X11522443Y-13862150D02*
X11541491Y-13871674D01*
X11541491Y-13871674D02*
X11551015Y-13890722D01*
X11551015Y-13890722D02*
X11551015Y-13995484D01*
X11941491Y-13785960D02*
X11770063Y-14043103D01*
X12198634Y-13795484D02*
X12217682Y-13795484D01*
X12217682Y-13795484D02*
X12236729Y-13805008D01*
X12236729Y-13805008D02*
X12246253Y-13814531D01*
X12246253Y-13814531D02*
X12255777Y-13833579D01*
X12255777Y-13833579D02*
X12265301Y-13871674D01*
X12265301Y-13871674D02*
X12265301Y-13919293D01*
X12265301Y-13919293D02*
X12255777Y-13957388D01*
X12255777Y-13957388D02*
X12246253Y-13976436D01*
X12246253Y-13976436D02*
X12236729Y-13985960D01*
X12236729Y-13985960D02*
X12217682Y-13995484D01*
X12217682Y-13995484D02*
X12198634Y-13995484D01*
X12198634Y-13995484D02*
X12179586Y-13985960D01*
X12179586Y-13985960D02*
X12170063Y-13976436D01*
X12170063Y-13976436D02*
X12160539Y-13957388D01*
X12160539Y-13957388D02*
X12151015Y-13919293D01*
X12151015Y-13919293D02*
X12151015Y-13871674D01*
X12151015Y-13871674D02*
X12160539Y-13833579D01*
X12160539Y-13833579D02*
X12170063Y-13814531D01*
X12170063Y-13814531D02*
X12179586Y-13805008D01*
X12179586Y-13805008D02*
X12198634Y-13795484D01*
X12351015Y-13976436D02*
X12360539Y-13985960D01*
X12360539Y-13985960D02*
X12351015Y-13995484D01*
X12351015Y-13995484D02*
X12341491Y-13985960D01*
X12341491Y-13985960D02*
X12351015Y-13976436D01*
X12351015Y-13976436D02*
X12351015Y-13995484D01*
X12551015Y-13995484D02*
X12436729Y-13995484D01*
X12493872Y-13995484D02*
X12493872Y-13795484D01*
X12493872Y-13795484D02*
X12474825Y-13824055D01*
X12474825Y-13824055D02*
X12455777Y-13843103D01*
X12455777Y-13843103D02*
X12436729Y-13852627D01*
X12617682Y-13795484D02*
X12741491Y-13795484D01*
X12741491Y-13795484D02*
X12674825Y-13871674D01*
X12674825Y-13871674D02*
X12703396Y-13871674D01*
X12703396Y-13871674D02*
X12722444Y-13881198D01*
X12722444Y-13881198D02*
X12731967Y-13890722D01*
X12731967Y-13890722D02*
X12741491Y-13909769D01*
X12741491Y-13909769D02*
X12741491Y-13957388D01*
X12741491Y-13957388D02*
X12731967Y-13976436D01*
X12731967Y-13976436D02*
X12722444Y-13985960D01*
X12722444Y-13985960D02*
X12703396Y-13995484D01*
X12703396Y-13995484D02*
X12646253Y-13995484D01*
X12646253Y-13995484D02*
X12627206Y-13985960D01*
X12627206Y-13985960D02*
X12617682Y-13976436D01*
X12808158Y-13795484D02*
X12941491Y-13795484D01*
X12941491Y-13795484D02*
X12855777Y-13995484D01*
X13046253Y-13881198D02*
X13027206Y-13871674D01*
X13027206Y-13871674D02*
X13017682Y-13862150D01*
X13017682Y-13862150D02*
X13008158Y-13843103D01*
X13008158Y-13843103D02*
X13008158Y-13833579D01*
X13008158Y-13833579D02*
X13017682Y-13814531D01*
X13017682Y-13814531D02*
X13027206Y-13805008D01*
X13027206Y-13805008D02*
X13046253Y-13795484D01*
X13046253Y-13795484D02*
X13084348Y-13795484D01*
X13084348Y-13795484D02*
X13103396Y-13805008D01*
X13103396Y-13805008D02*
X13112920Y-13814531D01*
X13112920Y-13814531D02*
X13122444Y-13833579D01*
X13122444Y-13833579D02*
X13122444Y-13843103D01*
X13122444Y-13843103D02*
X13112920Y-13862150D01*
X13112920Y-13862150D02*
X13103396Y-13871674D01*
X13103396Y-13871674D02*
X13084348Y-13881198D01*
X13084348Y-13881198D02*
X13046253Y-13881198D01*
X13046253Y-13881198D02*
X13027206Y-13890722D01*
X13027206Y-13890722D02*
X13017682Y-13900246D01*
X13017682Y-13900246D02*
X13008158Y-13919293D01*
X13008158Y-13919293D02*
X13008158Y-13957388D01*
X13008158Y-13957388D02*
X13017682Y-13976436D01*
X13017682Y-13976436D02*
X13027206Y-13985960D01*
X13027206Y-13985960D02*
X13046253Y-13995484D01*
X13046253Y-13995484D02*
X13084348Y-13995484D01*
X13084348Y-13995484D02*
X13103396Y-13985960D01*
X13103396Y-13985960D02*
X13112920Y-13976436D01*
X13112920Y-13976436D02*
X13122444Y-13957388D01*
X13122444Y-13957388D02*
X13122444Y-13919293D01*
X13122444Y-13919293D02*
X13112920Y-13900246D01*
X13112920Y-13900246D02*
X13103396Y-13890722D01*
X13103396Y-13890722D02*
X13084348Y-13881198D01*
X13198634Y-13795484D02*
X13198634Y-13833579D01*
X13274825Y-13795484D02*
X13274825Y-13833579D01*
X13570063Y-14071674D02*
X13560539Y-14062150D01*
X13560539Y-14062150D02*
X13541491Y-14033579D01*
X13541491Y-14033579D02*
X13531968Y-14014531D01*
X13531968Y-14014531D02*
X13522444Y-13985960D01*
X13522444Y-13985960D02*
X13512920Y-13938341D01*
X13512920Y-13938341D02*
X13512920Y-13900246D01*
X13512920Y-13900246D02*
X13522444Y-13852627D01*
X13522444Y-13852627D02*
X13531968Y-13824055D01*
X13531968Y-13824055D02*
X13541491Y-13805008D01*
X13541491Y-13805008D02*
X13560539Y-13776436D01*
X13560539Y-13776436D02*
X13570063Y-13766912D01*
X13731968Y-13862150D02*
X13731968Y-13995484D01*
X13684348Y-13785960D02*
X13636729Y-13928817D01*
X13636729Y-13928817D02*
X13760539Y-13928817D01*
X13989110Y-13995484D02*
X13989110Y-13795484D01*
X14074825Y-13995484D02*
X14074825Y-13890722D01*
X14074825Y-13890722D02*
X14065301Y-13871674D01*
X14065301Y-13871674D02*
X14046253Y-13862150D01*
X14046253Y-13862150D02*
X14017682Y-13862150D01*
X14017682Y-13862150D02*
X13998634Y-13871674D01*
X13998634Y-13871674D02*
X13989110Y-13881198D01*
X14198634Y-13995484D02*
X14179587Y-13985960D01*
X14179587Y-13985960D02*
X14170063Y-13976436D01*
X14170063Y-13976436D02*
X14160539Y-13957388D01*
X14160539Y-13957388D02*
X14160539Y-13900246D01*
X14160539Y-13900246D02*
X14170063Y-13881198D01*
X14170063Y-13881198D02*
X14179587Y-13871674D01*
X14179587Y-13871674D02*
X14198634Y-13862150D01*
X14198634Y-13862150D02*
X14227206Y-13862150D01*
X14227206Y-13862150D02*
X14246253Y-13871674D01*
X14246253Y-13871674D02*
X14255777Y-13881198D01*
X14255777Y-13881198D02*
X14265301Y-13900246D01*
X14265301Y-13900246D02*
X14265301Y-13957388D01*
X14265301Y-13957388D02*
X14255777Y-13976436D01*
X14255777Y-13976436D02*
X14246253Y-13985960D01*
X14246253Y-13985960D02*
X14227206Y-13995484D01*
X14227206Y-13995484D02*
X14198634Y-13995484D01*
X14379587Y-13995484D02*
X14360539Y-13985960D01*
X14360539Y-13985960D02*
X14351015Y-13966912D01*
X14351015Y-13966912D02*
X14351015Y-13795484D01*
X14531968Y-13985960D02*
X14512920Y-13995484D01*
X14512920Y-13995484D02*
X14474825Y-13995484D01*
X14474825Y-13995484D02*
X14455777Y-13985960D01*
X14455777Y-13985960D02*
X14446253Y-13966912D01*
X14446253Y-13966912D02*
X14446253Y-13890722D01*
X14446253Y-13890722D02*
X14455777Y-13871674D01*
X14455777Y-13871674D02*
X14474825Y-13862150D01*
X14474825Y-13862150D02*
X14512920Y-13862150D01*
X14512920Y-13862150D02*
X14531968Y-13871674D01*
X14531968Y-13871674D02*
X14541491Y-13890722D01*
X14541491Y-13890722D02*
X14541491Y-13909769D01*
X14541491Y-13909769D02*
X14446253Y-13928817D01*
X14617682Y-13985960D02*
X14636730Y-13995484D01*
X14636730Y-13995484D02*
X14674825Y-13995484D01*
X14674825Y-13995484D02*
X14693872Y-13985960D01*
X14693872Y-13985960D02*
X14703396Y-13966912D01*
X14703396Y-13966912D02*
X14703396Y-13957388D01*
X14703396Y-13957388D02*
X14693872Y-13938341D01*
X14693872Y-13938341D02*
X14674825Y-13928817D01*
X14674825Y-13928817D02*
X14646253Y-13928817D01*
X14646253Y-13928817D02*
X14627206Y-13919293D01*
X14627206Y-13919293D02*
X14617682Y-13900246D01*
X14617682Y-13900246D02*
X14617682Y-13890722D01*
X14617682Y-13890722D02*
X14627206Y-13871674D01*
X14627206Y-13871674D02*
X14646253Y-13862150D01*
X14646253Y-13862150D02*
X14674825Y-13862150D01*
X14674825Y-13862150D02*
X14693872Y-13871674D01*
X14770063Y-14071674D02*
X14779587Y-14062150D01*
X14779587Y-14062150D02*
X14798634Y-14033579D01*
X14798634Y-14033579D02*
X14808158Y-14014531D01*
X14808158Y-14014531D02*
X14817682Y-13985960D01*
X14817682Y-13985960D02*
X14827206Y-13938341D01*
X14827206Y-13938341D02*
X14827206Y-13900246D01*
X14827206Y-13900246D02*
X14817682Y-13852627D01*
X14817682Y-13852627D02*
X14808158Y-13824055D01*
X14808158Y-13824055D02*
X14798634Y-13805008D01*
X14798634Y-13805008D02*
X14779587Y-13776436D01*
X14779587Y-13776436D02*
X14770063Y-13766912D01*
X15131968Y-14071674D02*
X15122444Y-14062150D01*
X15122444Y-14062150D02*
X15103396Y-14033579D01*
X15103396Y-14033579D02*
X15093872Y-14014531D01*
X15093872Y-14014531D02*
X15084349Y-13985960D01*
X15084349Y-13985960D02*
X15074825Y-13938341D01*
X15074825Y-13938341D02*
X15074825Y-13900246D01*
X15074825Y-13900246D02*
X15084349Y-13852627D01*
X15084349Y-13852627D02*
X15093872Y-13824055D01*
X15093872Y-13824055D02*
X15103396Y-13805008D01*
X15103396Y-13805008D02*
X15122444Y-13776436D01*
X15122444Y-13776436D02*
X15131968Y-13766912D01*
X15208158Y-13862150D02*
X15208158Y-13995484D01*
X15208158Y-13881198D02*
X15217682Y-13871674D01*
X15217682Y-13871674D02*
X15236730Y-13862150D01*
X15236730Y-13862150D02*
X15265301Y-13862150D01*
X15265301Y-13862150D02*
X15284349Y-13871674D01*
X15284349Y-13871674D02*
X15293872Y-13890722D01*
X15293872Y-13890722D02*
X15293872Y-13995484D01*
X15417682Y-13995484D02*
X15398634Y-13985960D01*
X15398634Y-13985960D02*
X15389111Y-13976436D01*
X15389111Y-13976436D02*
X15379587Y-13957388D01*
X15379587Y-13957388D02*
X15379587Y-13900246D01*
X15379587Y-13900246D02*
X15389111Y-13881198D01*
X15389111Y-13881198D02*
X15398634Y-13871674D01*
X15398634Y-13871674D02*
X15417682Y-13862150D01*
X15417682Y-13862150D02*
X15446253Y-13862150D01*
X15446253Y-13862150D02*
X15465301Y-13871674D01*
X15465301Y-13871674D02*
X15474825Y-13881198D01*
X15474825Y-13881198D02*
X15484349Y-13900246D01*
X15484349Y-13900246D02*
X15484349Y-13957388D01*
X15484349Y-13957388D02*
X15474825Y-13976436D01*
X15474825Y-13976436D02*
X15465301Y-13985960D01*
X15465301Y-13985960D02*
X15446253Y-13995484D01*
X15446253Y-13995484D02*
X15417682Y-13995484D01*
X15541492Y-13862150D02*
X15617682Y-13862150D01*
X15570063Y-13795484D02*
X15570063Y-13966912D01*
X15570063Y-13966912D02*
X15579587Y-13985960D01*
X15579587Y-13985960D02*
X15598634Y-13995484D01*
X15598634Y-13995484D02*
X15617682Y-13995484D01*
X15836730Y-13862150D02*
X15836730Y-14062150D01*
X15836730Y-13871674D02*
X15855777Y-13862150D01*
X15855777Y-13862150D02*
X15893873Y-13862150D01*
X15893873Y-13862150D02*
X15912920Y-13871674D01*
X15912920Y-13871674D02*
X15922444Y-13881198D01*
X15922444Y-13881198D02*
X15931968Y-13900246D01*
X15931968Y-13900246D02*
X15931968Y-13957388D01*
X15931968Y-13957388D02*
X15922444Y-13976436D01*
X15922444Y-13976436D02*
X15912920Y-13985960D01*
X15912920Y-13985960D02*
X15893873Y-13995484D01*
X15893873Y-13995484D02*
X15855777Y-13995484D01*
X15855777Y-13995484D02*
X15836730Y-13985960D01*
X16046253Y-13995484D02*
X16027206Y-13985960D01*
X16027206Y-13985960D02*
X16017682Y-13966912D01*
X16017682Y-13966912D02*
X16017682Y-13795484D01*
X16208158Y-13995484D02*
X16208158Y-13890722D01*
X16208158Y-13890722D02*
X16198634Y-13871674D01*
X16198634Y-13871674D02*
X16179587Y-13862150D01*
X16179587Y-13862150D02*
X16141492Y-13862150D01*
X16141492Y-13862150D02*
X16122444Y-13871674D01*
X16208158Y-13985960D02*
X16189111Y-13995484D01*
X16189111Y-13995484D02*
X16141492Y-13995484D01*
X16141492Y-13995484D02*
X16122444Y-13985960D01*
X16122444Y-13985960D02*
X16112920Y-13966912D01*
X16112920Y-13966912D02*
X16112920Y-13947865D01*
X16112920Y-13947865D02*
X16122444Y-13928817D01*
X16122444Y-13928817D02*
X16141492Y-13919293D01*
X16141492Y-13919293D02*
X16189111Y-13919293D01*
X16189111Y-13919293D02*
X16208158Y-13909769D01*
X16274825Y-13862150D02*
X16351015Y-13862150D01*
X16303396Y-13795484D02*
X16303396Y-13966912D01*
X16303396Y-13966912D02*
X16312920Y-13985960D01*
X16312920Y-13985960D02*
X16331968Y-13995484D01*
X16331968Y-13995484D02*
X16351015Y-13995484D01*
X16493873Y-13985960D02*
X16474825Y-13995484D01*
X16474825Y-13995484D02*
X16436730Y-13995484D01*
X16436730Y-13995484D02*
X16417682Y-13985960D01*
X16417682Y-13985960D02*
X16408158Y-13966912D01*
X16408158Y-13966912D02*
X16408158Y-13890722D01*
X16408158Y-13890722D02*
X16417682Y-13871674D01*
X16417682Y-13871674D02*
X16436730Y-13862150D01*
X16436730Y-13862150D02*
X16474825Y-13862150D01*
X16474825Y-13862150D02*
X16493873Y-13871674D01*
X16493873Y-13871674D02*
X16503396Y-13890722D01*
X16503396Y-13890722D02*
X16503396Y-13909769D01*
X16503396Y-13909769D02*
X16408158Y-13928817D01*
X16674825Y-13995484D02*
X16674825Y-13795484D01*
X16674825Y-13985960D02*
X16655777Y-13995484D01*
X16655777Y-13995484D02*
X16617682Y-13995484D01*
X16617682Y-13995484D02*
X16598634Y-13985960D01*
X16598634Y-13985960D02*
X16589111Y-13976436D01*
X16589111Y-13976436D02*
X16579587Y-13957388D01*
X16579587Y-13957388D02*
X16579587Y-13900246D01*
X16579587Y-13900246D02*
X16589111Y-13881198D01*
X16589111Y-13881198D02*
X16598634Y-13871674D01*
X16598634Y-13871674D02*
X16617682Y-13862150D01*
X16617682Y-13862150D02*
X16655777Y-13862150D01*
X16655777Y-13862150D02*
X16674825Y-13871674D01*
X16751015Y-14071674D02*
X16760539Y-14062150D01*
X16760539Y-14062150D02*
X16779587Y-14033579D01*
X16779587Y-14033579D02*
X16789111Y-14014531D01*
X16789111Y-14014531D02*
X16798635Y-13985960D01*
X16798635Y-13985960D02*
X16808158Y-13938341D01*
X16808158Y-13938341D02*
X16808158Y-13900246D01*
X16808158Y-13900246D02*
X16798635Y-13852627D01*
X16798635Y-13852627D02*
X16789111Y-13824055D01*
X16789111Y-13824055D02*
X16779587Y-13805008D01*
X16779587Y-13805008D02*
X16760539Y-13776436D01*
X16760539Y-13776436D02*
X16751015Y-13766912D01*
X9965711Y-14294711D02*
X9965711Y-14153289D01*
X9824289Y-14153289D01*
X9824289Y-14294711D01*
X9965711Y-14294711D01*
X10341491Y-14182150D02*
X10341491Y-14315484D01*
X10293872Y-14105960D02*
X10246253Y-14248817D01*
X10246253Y-14248817D02*
X10370063Y-14248817D01*
X10446253Y-14296436D02*
X10455777Y-14305960D01*
X10455777Y-14305960D02*
X10446253Y-14315484D01*
X10446253Y-14315484D02*
X10436729Y-14305960D01*
X10436729Y-14305960D02*
X10446253Y-14296436D01*
X10446253Y-14296436D02*
X10446253Y-14315484D01*
X10579586Y-14115484D02*
X10598634Y-14115484D01*
X10598634Y-14115484D02*
X10617682Y-14125008D01*
X10617682Y-14125008D02*
X10627205Y-14134531D01*
X10627205Y-14134531D02*
X10636729Y-14153579D01*
X10636729Y-14153579D02*
X10646253Y-14191674D01*
X10646253Y-14191674D02*
X10646253Y-14239293D01*
X10646253Y-14239293D02*
X10636729Y-14277388D01*
X10636729Y-14277388D02*
X10627205Y-14296436D01*
X10627205Y-14296436D02*
X10617682Y-14305960D01*
X10617682Y-14305960D02*
X10598634Y-14315484D01*
X10598634Y-14315484D02*
X10579586Y-14315484D01*
X10579586Y-14315484D02*
X10560539Y-14305960D01*
X10560539Y-14305960D02*
X10551015Y-14296436D01*
X10551015Y-14296436D02*
X10541491Y-14277388D01*
X10541491Y-14277388D02*
X10531967Y-14239293D01*
X10531967Y-14239293D02*
X10531967Y-14191674D01*
X10531967Y-14191674D02*
X10541491Y-14153579D01*
X10541491Y-14153579D02*
X10551015Y-14134531D01*
X10551015Y-14134531D02*
X10560539Y-14125008D01*
X10560539Y-14125008D02*
X10579586Y-14115484D01*
X10770063Y-14115484D02*
X10789110Y-14115484D01*
X10789110Y-14115484D02*
X10808158Y-14125008D01*
X10808158Y-14125008D02*
X10817682Y-14134531D01*
X10817682Y-14134531D02*
X10827205Y-14153579D01*
X10827205Y-14153579D02*
X10836729Y-14191674D01*
X10836729Y-14191674D02*
X10836729Y-14239293D01*
X10836729Y-14239293D02*
X10827205Y-14277388D01*
X10827205Y-14277388D02*
X10817682Y-14296436D01*
X10817682Y-14296436D02*
X10808158Y-14305960D01*
X10808158Y-14305960D02*
X10789110Y-14315484D01*
X10789110Y-14315484D02*
X10770063Y-14315484D01*
X10770063Y-14315484D02*
X10751015Y-14305960D01*
X10751015Y-14305960D02*
X10741491Y-14296436D01*
X10741491Y-14296436D02*
X10731967Y-14277388D01*
X10731967Y-14277388D02*
X10722444Y-14239293D01*
X10722444Y-14239293D02*
X10722444Y-14191674D01*
X10722444Y-14191674D02*
X10731967Y-14153579D01*
X10731967Y-14153579D02*
X10741491Y-14134531D01*
X10741491Y-14134531D02*
X10751015Y-14125008D01*
X10751015Y-14125008D02*
X10770063Y-14115484D01*
X10960539Y-14115484D02*
X10979586Y-14115484D01*
X10979586Y-14115484D02*
X10998634Y-14125008D01*
X10998634Y-14125008D02*
X11008158Y-14134531D01*
X11008158Y-14134531D02*
X11017682Y-14153579D01*
X11017682Y-14153579D02*
X11027205Y-14191674D01*
X11027205Y-14191674D02*
X11027205Y-14239293D01*
X11027205Y-14239293D02*
X11017682Y-14277388D01*
X11017682Y-14277388D02*
X11008158Y-14296436D01*
X11008158Y-14296436D02*
X10998634Y-14305960D01*
X10998634Y-14305960D02*
X10979586Y-14315484D01*
X10979586Y-14315484D02*
X10960539Y-14315484D01*
X10960539Y-14315484D02*
X10941491Y-14305960D01*
X10941491Y-14305960D02*
X10931967Y-14296436D01*
X10931967Y-14296436D02*
X10922444Y-14277388D01*
X10922444Y-14277388D02*
X10912920Y-14239293D01*
X10912920Y-14239293D02*
X10912920Y-14191674D01*
X10912920Y-14191674D02*
X10922444Y-14153579D01*
X10922444Y-14153579D02*
X10931967Y-14134531D01*
X10931967Y-14134531D02*
X10941491Y-14125008D01*
X10941491Y-14125008D02*
X10960539Y-14115484D01*
X11112920Y-14315484D02*
X11112920Y-14182150D01*
X11112920Y-14201198D02*
X11122444Y-14191674D01*
X11122444Y-14191674D02*
X11141491Y-14182150D01*
X11141491Y-14182150D02*
X11170063Y-14182150D01*
X11170063Y-14182150D02*
X11189110Y-14191674D01*
X11189110Y-14191674D02*
X11198634Y-14210722D01*
X11198634Y-14210722D02*
X11198634Y-14315484D01*
X11198634Y-14210722D02*
X11208158Y-14191674D01*
X11208158Y-14191674D02*
X11227205Y-14182150D01*
X11227205Y-14182150D02*
X11255777Y-14182150D01*
X11255777Y-14182150D02*
X11274824Y-14191674D01*
X11274824Y-14191674D02*
X11284348Y-14210722D01*
X11284348Y-14210722D02*
X11284348Y-14315484D01*
X11379586Y-14315484D02*
X11379586Y-14182150D01*
X11379586Y-14201198D02*
X11389110Y-14191674D01*
X11389110Y-14191674D02*
X11408158Y-14182150D01*
X11408158Y-14182150D02*
X11436729Y-14182150D01*
X11436729Y-14182150D02*
X11455777Y-14191674D01*
X11455777Y-14191674D02*
X11465301Y-14210722D01*
X11465301Y-14210722D02*
X11465301Y-14315484D01*
X11465301Y-14210722D02*
X11474824Y-14191674D01*
X11474824Y-14191674D02*
X11493872Y-14182150D01*
X11493872Y-14182150D02*
X11522443Y-14182150D01*
X11522443Y-14182150D02*
X11541491Y-14191674D01*
X11541491Y-14191674D02*
X11551015Y-14210722D01*
X11551015Y-14210722D02*
X11551015Y-14315484D01*
X11941491Y-14105960D02*
X11770063Y-14363103D01*
X12198634Y-14115484D02*
X12217682Y-14115484D01*
X12217682Y-14115484D02*
X12236729Y-14125008D01*
X12236729Y-14125008D02*
X12246253Y-14134531D01*
X12246253Y-14134531D02*
X12255777Y-14153579D01*
X12255777Y-14153579D02*
X12265301Y-14191674D01*
X12265301Y-14191674D02*
X12265301Y-14239293D01*
X12265301Y-14239293D02*
X12255777Y-14277388D01*
X12255777Y-14277388D02*
X12246253Y-14296436D01*
X12246253Y-14296436D02*
X12236729Y-14305960D01*
X12236729Y-14305960D02*
X12217682Y-14315484D01*
X12217682Y-14315484D02*
X12198634Y-14315484D01*
X12198634Y-14315484D02*
X12179586Y-14305960D01*
X12179586Y-14305960D02*
X12170063Y-14296436D01*
X12170063Y-14296436D02*
X12160539Y-14277388D01*
X12160539Y-14277388D02*
X12151015Y-14239293D01*
X12151015Y-14239293D02*
X12151015Y-14191674D01*
X12151015Y-14191674D02*
X12160539Y-14153579D01*
X12160539Y-14153579D02*
X12170063Y-14134531D01*
X12170063Y-14134531D02*
X12179586Y-14125008D01*
X12179586Y-14125008D02*
X12198634Y-14115484D01*
X12351015Y-14296436D02*
X12360539Y-14305960D01*
X12360539Y-14305960D02*
X12351015Y-14315484D01*
X12351015Y-14315484D02*
X12341491Y-14305960D01*
X12341491Y-14305960D02*
X12351015Y-14296436D01*
X12351015Y-14296436D02*
X12351015Y-14315484D01*
X12551015Y-14315484D02*
X12436729Y-14315484D01*
X12493872Y-14315484D02*
X12493872Y-14115484D01*
X12493872Y-14115484D02*
X12474825Y-14144055D01*
X12474825Y-14144055D02*
X12455777Y-14163103D01*
X12455777Y-14163103D02*
X12436729Y-14172627D01*
X12731967Y-14115484D02*
X12636729Y-14115484D01*
X12636729Y-14115484D02*
X12627206Y-14210722D01*
X12627206Y-14210722D02*
X12636729Y-14201198D01*
X12636729Y-14201198D02*
X12655777Y-14191674D01*
X12655777Y-14191674D02*
X12703396Y-14191674D01*
X12703396Y-14191674D02*
X12722444Y-14201198D01*
X12722444Y-14201198D02*
X12731967Y-14210722D01*
X12731967Y-14210722D02*
X12741491Y-14229769D01*
X12741491Y-14229769D02*
X12741491Y-14277388D01*
X12741491Y-14277388D02*
X12731967Y-14296436D01*
X12731967Y-14296436D02*
X12722444Y-14305960D01*
X12722444Y-14305960D02*
X12703396Y-14315484D01*
X12703396Y-14315484D02*
X12655777Y-14315484D01*
X12655777Y-14315484D02*
X12636729Y-14305960D01*
X12636729Y-14305960D02*
X12627206Y-14296436D01*
X12808158Y-14115484D02*
X12941491Y-14115484D01*
X12941491Y-14115484D02*
X12855777Y-14315484D01*
X13112920Y-14115484D02*
X13017682Y-14115484D01*
X13017682Y-14115484D02*
X13008158Y-14210722D01*
X13008158Y-14210722D02*
X13017682Y-14201198D01*
X13017682Y-14201198D02*
X13036729Y-14191674D01*
X13036729Y-14191674D02*
X13084348Y-14191674D01*
X13084348Y-14191674D02*
X13103396Y-14201198D01*
X13103396Y-14201198D02*
X13112920Y-14210722D01*
X13112920Y-14210722D02*
X13122444Y-14229769D01*
X13122444Y-14229769D02*
X13122444Y-14277388D01*
X13122444Y-14277388D02*
X13112920Y-14296436D01*
X13112920Y-14296436D02*
X13103396Y-14305960D01*
X13103396Y-14305960D02*
X13084348Y-14315484D01*
X13084348Y-14315484D02*
X13036729Y-14315484D01*
X13036729Y-14315484D02*
X13017682Y-14305960D01*
X13017682Y-14305960D02*
X13008158Y-14296436D01*
X13198634Y-14115484D02*
X13198634Y-14153579D01*
X13274825Y-14115484D02*
X13274825Y-14153579D01*
X13570063Y-14391674D02*
X13560539Y-14382150D01*
X13560539Y-14382150D02*
X13541491Y-14353579D01*
X13541491Y-14353579D02*
X13531968Y-14334531D01*
X13531968Y-14334531D02*
X13522444Y-14305960D01*
X13522444Y-14305960D02*
X13512920Y-14258341D01*
X13512920Y-14258341D02*
X13512920Y-14220246D01*
X13512920Y-14220246D02*
X13522444Y-14172627D01*
X13522444Y-14172627D02*
X13531968Y-14144055D01*
X13531968Y-14144055D02*
X13541491Y-14125008D01*
X13541491Y-14125008D02*
X13560539Y-14096436D01*
X13560539Y-14096436D02*
X13570063Y-14086912D01*
X13636729Y-14134531D02*
X13646253Y-14125008D01*
X13646253Y-14125008D02*
X13665301Y-14115484D01*
X13665301Y-14115484D02*
X13712920Y-14115484D01*
X13712920Y-14115484D02*
X13731968Y-14125008D01*
X13731968Y-14125008D02*
X13741491Y-14134531D01*
X13741491Y-14134531D02*
X13751015Y-14153579D01*
X13751015Y-14153579D02*
X13751015Y-14172627D01*
X13751015Y-14172627D02*
X13741491Y-14201198D01*
X13741491Y-14201198D02*
X13627206Y-14315484D01*
X13627206Y-14315484D02*
X13751015Y-14315484D01*
X13989110Y-14315484D02*
X13989110Y-14115484D01*
X14074825Y-14315484D02*
X14074825Y-14210722D01*
X14074825Y-14210722D02*
X14065301Y-14191674D01*
X14065301Y-14191674D02*
X14046253Y-14182150D01*
X14046253Y-14182150D02*
X14017682Y-14182150D01*
X14017682Y-14182150D02*
X13998634Y-14191674D01*
X13998634Y-14191674D02*
X13989110Y-14201198D01*
X14198634Y-14315484D02*
X14179587Y-14305960D01*
X14179587Y-14305960D02*
X14170063Y-14296436D01*
X14170063Y-14296436D02*
X14160539Y-14277388D01*
X14160539Y-14277388D02*
X14160539Y-14220246D01*
X14160539Y-14220246D02*
X14170063Y-14201198D01*
X14170063Y-14201198D02*
X14179587Y-14191674D01*
X14179587Y-14191674D02*
X14198634Y-14182150D01*
X14198634Y-14182150D02*
X14227206Y-14182150D01*
X14227206Y-14182150D02*
X14246253Y-14191674D01*
X14246253Y-14191674D02*
X14255777Y-14201198D01*
X14255777Y-14201198D02*
X14265301Y-14220246D01*
X14265301Y-14220246D02*
X14265301Y-14277388D01*
X14265301Y-14277388D02*
X14255777Y-14296436D01*
X14255777Y-14296436D02*
X14246253Y-14305960D01*
X14246253Y-14305960D02*
X14227206Y-14315484D01*
X14227206Y-14315484D02*
X14198634Y-14315484D01*
X14379587Y-14315484D02*
X14360539Y-14305960D01*
X14360539Y-14305960D02*
X14351015Y-14286912D01*
X14351015Y-14286912D02*
X14351015Y-14115484D01*
X14531968Y-14305960D02*
X14512920Y-14315484D01*
X14512920Y-14315484D02*
X14474825Y-14315484D01*
X14474825Y-14315484D02*
X14455777Y-14305960D01*
X14455777Y-14305960D02*
X14446253Y-14286912D01*
X14446253Y-14286912D02*
X14446253Y-14210722D01*
X14446253Y-14210722D02*
X14455777Y-14191674D01*
X14455777Y-14191674D02*
X14474825Y-14182150D01*
X14474825Y-14182150D02*
X14512920Y-14182150D01*
X14512920Y-14182150D02*
X14531968Y-14191674D01*
X14531968Y-14191674D02*
X14541491Y-14210722D01*
X14541491Y-14210722D02*
X14541491Y-14229769D01*
X14541491Y-14229769D02*
X14446253Y-14248817D01*
X14617682Y-14305960D02*
X14636730Y-14315484D01*
X14636730Y-14315484D02*
X14674825Y-14315484D01*
X14674825Y-14315484D02*
X14693872Y-14305960D01*
X14693872Y-14305960D02*
X14703396Y-14286912D01*
X14703396Y-14286912D02*
X14703396Y-14277388D01*
X14703396Y-14277388D02*
X14693872Y-14258341D01*
X14693872Y-14258341D02*
X14674825Y-14248817D01*
X14674825Y-14248817D02*
X14646253Y-14248817D01*
X14646253Y-14248817D02*
X14627206Y-14239293D01*
X14627206Y-14239293D02*
X14617682Y-14220246D01*
X14617682Y-14220246D02*
X14617682Y-14210722D01*
X14617682Y-14210722D02*
X14627206Y-14191674D01*
X14627206Y-14191674D02*
X14646253Y-14182150D01*
X14646253Y-14182150D02*
X14674825Y-14182150D01*
X14674825Y-14182150D02*
X14693872Y-14191674D01*
X14770063Y-14391674D02*
X14779587Y-14382150D01*
X14779587Y-14382150D02*
X14798634Y-14353579D01*
X14798634Y-14353579D02*
X14808158Y-14334531D01*
X14808158Y-14334531D02*
X14817682Y-14305960D01*
X14817682Y-14305960D02*
X14827206Y-14258341D01*
X14827206Y-14258341D02*
X14827206Y-14220246D01*
X14827206Y-14220246D02*
X14817682Y-14172627D01*
X14817682Y-14172627D02*
X14808158Y-14144055D01*
X14808158Y-14144055D02*
X14798634Y-14125008D01*
X14798634Y-14125008D02*
X14779587Y-14096436D01*
X14779587Y-14096436D02*
X14770063Y-14086912D01*
X15131968Y-14391674D02*
X15122444Y-14382150D01*
X15122444Y-14382150D02*
X15103396Y-14353579D01*
X15103396Y-14353579D02*
X15093872Y-14334531D01*
X15093872Y-14334531D02*
X15084349Y-14305960D01*
X15084349Y-14305960D02*
X15074825Y-14258341D01*
X15074825Y-14258341D02*
X15074825Y-14220246D01*
X15074825Y-14220246D02*
X15084349Y-14172627D01*
X15084349Y-14172627D02*
X15093872Y-14144055D01*
X15093872Y-14144055D02*
X15103396Y-14125008D01*
X15103396Y-14125008D02*
X15122444Y-14096436D01*
X15122444Y-14096436D02*
X15131968Y-14086912D01*
X15208158Y-14182150D02*
X15208158Y-14315484D01*
X15208158Y-14201198D02*
X15217682Y-14191674D01*
X15217682Y-14191674D02*
X15236730Y-14182150D01*
X15236730Y-14182150D02*
X15265301Y-14182150D01*
X15265301Y-14182150D02*
X15284349Y-14191674D01*
X15284349Y-14191674D02*
X15293872Y-14210722D01*
X15293872Y-14210722D02*
X15293872Y-14315484D01*
X15417682Y-14315484D02*
X15398634Y-14305960D01*
X15398634Y-14305960D02*
X15389111Y-14296436D01*
X15389111Y-14296436D02*
X15379587Y-14277388D01*
X15379587Y-14277388D02*
X15379587Y-14220246D01*
X15379587Y-14220246D02*
X15389111Y-14201198D01*
X15389111Y-14201198D02*
X15398634Y-14191674D01*
X15398634Y-14191674D02*
X15417682Y-14182150D01*
X15417682Y-14182150D02*
X15446253Y-14182150D01*
X15446253Y-14182150D02*
X15465301Y-14191674D01*
X15465301Y-14191674D02*
X15474825Y-14201198D01*
X15474825Y-14201198D02*
X15484349Y-14220246D01*
X15484349Y-14220246D02*
X15484349Y-14277388D01*
X15484349Y-14277388D02*
X15474825Y-14296436D01*
X15474825Y-14296436D02*
X15465301Y-14305960D01*
X15465301Y-14305960D02*
X15446253Y-14315484D01*
X15446253Y-14315484D02*
X15417682Y-14315484D01*
X15541492Y-14182150D02*
X15617682Y-14182150D01*
X15570063Y-14115484D02*
X15570063Y-14286912D01*
X15570063Y-14286912D02*
X15579587Y-14305960D01*
X15579587Y-14305960D02*
X15598634Y-14315484D01*
X15598634Y-14315484D02*
X15617682Y-14315484D01*
X15836730Y-14182150D02*
X15836730Y-14382150D01*
X15836730Y-14191674D02*
X15855777Y-14182150D01*
X15855777Y-14182150D02*
X15893873Y-14182150D01*
X15893873Y-14182150D02*
X15912920Y-14191674D01*
X15912920Y-14191674D02*
X15922444Y-14201198D01*
X15922444Y-14201198D02*
X15931968Y-14220246D01*
X15931968Y-14220246D02*
X15931968Y-14277388D01*
X15931968Y-14277388D02*
X15922444Y-14296436D01*
X15922444Y-14296436D02*
X15912920Y-14305960D01*
X15912920Y-14305960D02*
X15893873Y-14315484D01*
X15893873Y-14315484D02*
X15855777Y-14315484D01*
X15855777Y-14315484D02*
X15836730Y-14305960D01*
X16046253Y-14315484D02*
X16027206Y-14305960D01*
X16027206Y-14305960D02*
X16017682Y-14286912D01*
X16017682Y-14286912D02*
X16017682Y-14115484D01*
X16208158Y-14315484D02*
X16208158Y-14210722D01*
X16208158Y-14210722D02*
X16198634Y-14191674D01*
X16198634Y-14191674D02*
X16179587Y-14182150D01*
X16179587Y-14182150D02*
X16141492Y-14182150D01*
X16141492Y-14182150D02*
X16122444Y-14191674D01*
X16208158Y-14305960D02*
X16189111Y-14315484D01*
X16189111Y-14315484D02*
X16141492Y-14315484D01*
X16141492Y-14315484D02*
X16122444Y-14305960D01*
X16122444Y-14305960D02*
X16112920Y-14286912D01*
X16112920Y-14286912D02*
X16112920Y-14267865D01*
X16112920Y-14267865D02*
X16122444Y-14248817D01*
X16122444Y-14248817D02*
X16141492Y-14239293D01*
X16141492Y-14239293D02*
X16189111Y-14239293D01*
X16189111Y-14239293D02*
X16208158Y-14229769D01*
X16274825Y-14182150D02*
X16351015Y-14182150D01*
X16303396Y-14115484D02*
X16303396Y-14286912D01*
X16303396Y-14286912D02*
X16312920Y-14305960D01*
X16312920Y-14305960D02*
X16331968Y-14315484D01*
X16331968Y-14315484D02*
X16351015Y-14315484D01*
X16493873Y-14305960D02*
X16474825Y-14315484D01*
X16474825Y-14315484D02*
X16436730Y-14315484D01*
X16436730Y-14315484D02*
X16417682Y-14305960D01*
X16417682Y-14305960D02*
X16408158Y-14286912D01*
X16408158Y-14286912D02*
X16408158Y-14210722D01*
X16408158Y-14210722D02*
X16417682Y-14191674D01*
X16417682Y-14191674D02*
X16436730Y-14182150D01*
X16436730Y-14182150D02*
X16474825Y-14182150D01*
X16474825Y-14182150D02*
X16493873Y-14191674D01*
X16493873Y-14191674D02*
X16503396Y-14210722D01*
X16503396Y-14210722D02*
X16503396Y-14229769D01*
X16503396Y-14229769D02*
X16408158Y-14248817D01*
X16674825Y-14315484D02*
X16674825Y-14115484D01*
X16674825Y-14305960D02*
X16655777Y-14315484D01*
X16655777Y-14315484D02*
X16617682Y-14315484D01*
X16617682Y-14315484D02*
X16598634Y-14305960D01*
X16598634Y-14305960D02*
X16589111Y-14296436D01*
X16589111Y-14296436D02*
X16579587Y-14277388D01*
X16579587Y-14277388D02*
X16579587Y-14220246D01*
X16579587Y-14220246D02*
X16589111Y-14201198D01*
X16589111Y-14201198D02*
X16598634Y-14191674D01*
X16598634Y-14191674D02*
X16617682Y-14182150D01*
X16617682Y-14182150D02*
X16655777Y-14182150D01*
X16655777Y-14182150D02*
X16674825Y-14191674D01*
X16751015Y-14391674D02*
X16760539Y-14382150D01*
X16760539Y-14382150D02*
X16779587Y-14353579D01*
X16779587Y-14353579D02*
X16789111Y-14334531D01*
X16789111Y-14334531D02*
X16798635Y-14305960D01*
X16798635Y-14305960D02*
X16808158Y-14258341D01*
X16808158Y-14258341D02*
X16808158Y-14220246D01*
X16808158Y-14220246D02*
X16798635Y-14172627D01*
X16798635Y-14172627D02*
X16789111Y-14144055D01*
X16789111Y-14144055D02*
X16779587Y-14125008D01*
X16779587Y-14125008D02*
X16760539Y-14096436D01*
X16760539Y-14096436D02*
X16751015Y-14086912D01*
M02*
