G04 #@! TF.GenerationSoftware,KiCad,Pcbnew,7.0.7+dfsg-1*
G04 #@! TF.CreationDate,2023-09-19T15:44:58+10:00*
G04 #@! TF.ProjectId,fan-controller,66616e2d-636f-46e7-9472-6f6c6c65722e,rev?*
G04 #@! TF.SameCoordinates,Original*
G04 #@! TF.FileFunction,Copper,L1,Top*
G04 #@! TF.FilePolarity,Positive*
%FSLAX46Y46*%
G04 Gerber Fmt 4.6, Leading zero omitted, Abs format (unit mm)*
G04 Created by KiCad (PCBNEW 7.0.7+dfsg-1) date 2023-09-19 15:44:58*
%MOMM*%
%LPD*%
G01*
G04 APERTURE LIST*
G04 #@! TA.AperFunction,ComponentPad*
%ADD10R,1.730000X2.030000*%
G04 #@! TD*
G04 #@! TA.AperFunction,ComponentPad*
%ADD11O,1.730000X2.030000*%
G04 #@! TD*
G04 #@! TA.AperFunction,ComponentPad*
%ADD12R,1.700000X1.700000*%
G04 #@! TD*
G04 #@! TA.AperFunction,ComponentPad*
%ADD13O,1.700000X1.700000*%
G04 #@! TD*
G04 #@! TA.AperFunction,ComponentPad*
%ADD14C,3.000000*%
G04 #@! TD*
G04 #@! TA.AperFunction,ComponentPad*
%ADD15C,2.750000*%
G04 #@! TD*
G04 #@! TA.AperFunction,ComponentPad*
%ADD16R,1.600000X1.600000*%
G04 #@! TD*
G04 #@! TA.AperFunction,ComponentPad*
%ADD17O,1.600000X1.600000*%
G04 #@! TD*
G04 #@! TA.AperFunction,ComponentPad*
%ADD18C,1.600000*%
G04 #@! TD*
G04 #@! TA.AperFunction,Conductor*
%ADD19C,1.500000*%
G04 #@! TD*
G04 APERTURE END LIST*
D10*
X123190000Y-104775000D03*
D11*
X125730000Y-104775000D03*
X128270000Y-104775000D03*
X130810000Y-104775000D03*
D10*
X158750000Y-121920000D03*
D11*
X156210000Y-121920000D03*
X153670000Y-121920000D03*
X151130000Y-121920000D03*
D12*
X154940000Y-107950000D03*
D13*
X154940000Y-110490000D03*
X154940000Y-113030000D03*
D14*
X111760000Y-113030000D03*
D15*
X116840000Y-113030000D03*
D14*
X121920000Y-113030000D03*
X127000000Y-113030000D03*
D11*
X139065000Y-121920000D03*
X141605000Y-121920000D03*
X144145000Y-121920000D03*
D10*
X146685000Y-121920000D03*
X110490000Y-104775000D03*
D11*
X113030000Y-104775000D03*
X115570000Y-104775000D03*
X118110000Y-104775000D03*
D16*
X134620000Y-107950000D03*
D17*
X134620000Y-110490000D03*
X134620000Y-113030000D03*
X134620000Y-115570000D03*
X142240000Y-115570000D03*
X142240000Y-113030000D03*
X142240000Y-110490000D03*
X142240000Y-107950000D03*
D18*
X145415000Y-105430000D03*
X145415000Y-107930000D03*
D19*
X136700862Y-125630000D02*
X158301000Y-125630000D01*
X160565000Y-113569415D02*
X154945585Y-107950000D01*
X111084913Y-109474000D02*
X108675000Y-107064087D01*
X145395000Y-107950000D02*
X145415000Y-107930000D01*
X160565000Y-123366000D02*
X160565000Y-113569415D01*
X108675000Y-107064087D02*
X108675000Y-102018000D01*
X158301000Y-125630000D02*
X160565000Y-123366000D01*
X127000000Y-113030000D02*
X127000000Y-115929138D01*
X109628000Y-101065000D02*
X135355000Y-101065000D01*
X135355000Y-101065000D02*
X142240000Y-107950000D01*
X154920000Y-107930000D02*
X154940000Y-107950000D01*
X108675000Y-102018000D02*
X109628000Y-101065000D01*
X154945585Y-107950000D02*
X154940000Y-107950000D01*
X142240000Y-107950000D02*
X145395000Y-107950000D01*
X127000000Y-115929138D02*
X136700862Y-125630000D01*
X127000000Y-112014000D02*
X124460000Y-109474000D01*
X127000000Y-113030000D02*
X127000000Y-112014000D01*
X124460000Y-109474000D02*
X111084913Y-109474000D01*
X145415000Y-107930000D02*
X154920000Y-107930000D01*
X139065000Y-121920000D02*
X139065000Y-119405000D01*
X129215798Y-107442000D02*
X129469798Y-107188000D01*
X139065000Y-119405000D02*
X139788500Y-118681500D01*
X137541000Y-121920000D02*
X139065000Y-121920000D01*
X129469798Y-107188000D02*
X130810000Y-105847798D01*
X142240000Y-113030000D02*
X147891500Y-118681500D01*
X147891500Y-118681500D02*
X151130000Y-121920000D01*
X129469798Y-107188000D02*
X131826000Y-109544202D01*
X139788500Y-118681500D02*
X147891500Y-118681500D01*
X131826000Y-116205000D02*
X137541000Y-121920000D01*
X130810000Y-105847798D02*
X130810000Y-104775000D01*
X131826000Y-109544202D02*
X131826000Y-116205000D01*
X118110000Y-104775000D02*
X120777000Y-107442000D01*
X120777000Y-107442000D02*
X129215798Y-107442000D01*
X142240000Y-110490000D02*
X154940000Y-110490000D01*
M02*
