M48
; DRILL file {KiCad 7.0.7+dfsg-1} date Tue 19 Sep 2023 15:46:07
; FORMAT={-:-/ absolute / metric / decimal}
; #@! TF.CreationDate,2023-09-19T15:46:07+10:00
; #@! TF.GenerationSoftware,Kicad,Pcbnew,7.0.7+dfsg-1
; #@! TF.FileFunction,Plated,1,2,PTH
FMAT,2
METRIC
; #@! TA.AperFunction,Plated,PTH,ComponentDrill
T1C0.800
; #@! TA.AperFunction,Plated,PTH,ComponentDrill
T2C1.000
; #@! TA.AperFunction,Plated,PTH,ComponentDrill
T3C1.020
; #@! TA.AperFunction,Plated,PTH,ComponentDrill
T4C1.750
%
G90
G05
T1
X134.62Y-107.95
X134.62Y-110.49
X134.62Y-113.03
X134.62Y-115.57
X142.24Y-107.95
X142.24Y-110.49
X142.24Y-113.03
X142.24Y-115.57
X145.415Y-105.43
X145.415Y-107.93
T2
X154.94Y-107.95
X154.94Y-110.49
X154.94Y-113.03
T3
X110.49Y-104.775
X113.03Y-104.775
X115.57Y-104.775
X118.11Y-104.775
X123.19Y-104.775
X125.73Y-104.775
X128.27Y-104.775
X130.81Y-104.775
X139.065Y-121.92
X141.605Y-121.92
X144.145Y-121.92
X146.685Y-121.92
X151.13Y-121.92
X153.67Y-121.92
X156.21Y-121.92
X158.75Y-121.92
T4
X111.76Y-113.03
X116.84Y-113.03
X121.92Y-113.03
X127.0Y-113.03
T0
M30
