%TF.GenerationSoftware,KiCad,Pcbnew,7.0.7+dfsg-1*%
%TF.CreationDate,2023-09-19T15:46:09+10:00*%
%TF.ProjectId,fan-controller,66616e2d-636f-46e7-9472-6f6c6c65722e,rev?*%
%TF.SameCoordinates,Original*%
%TF.FileFunction,Drillmap*%
%TF.FilePolarity,Positive*%
%FSLAX45Y45*%
G04 Gerber Fmt 4.5, Leading zero omitted, Abs format (unit mm)*
G04 Created by KiCad (PCBNEW 7.0.7+dfsg-1) date 2023-09-19 15:46:09*
%MOMM*%
%LPD*%
G01*
G04 APERTURE LIST*
%ADD10C,0.100000*%
%ADD11C,0.200000*%
%ADD12C,0.080000*%
%ADD13C,0.102000*%
%ADD14C,0.175000*%
G04 APERTURE END LIST*
D10*
X16870000Y-12675000D02*
G75*
G03*
X17000000Y-12545000I0J130000D01*
G01*
X10000000Y-10130000D02*
X10000000Y-12545000D01*
X10130000Y-10000000D02*
G75*
G03*
X10000000Y-10130000I0J-130000D01*
G01*
X16870000Y-10000000D02*
X10130000Y-10000000D01*
X17000000Y-10130000D02*
G75*
G03*
X16870000Y-10000000I-130000J0D01*
G01*
X10130000Y-12675000D02*
X16870000Y-12675000D01*
X17000000Y-12545000D02*
X17000000Y-10130000D01*
X10000000Y-12545000D02*
G75*
G03*
X10130000Y-12675000I130000J0D01*
G01*
D11*
D12*
X13422000Y-10755000D02*
X13502000Y-10835000D01*
X13502000Y-10755000D02*
X13422000Y-10835000D01*
X13422000Y-11009000D02*
X13502000Y-11089000D01*
X13502000Y-11009000D02*
X13422000Y-11089000D01*
X13422000Y-11263000D02*
X13502000Y-11343000D01*
X13502000Y-11263000D02*
X13422000Y-11343000D01*
X13422000Y-11517000D02*
X13502000Y-11597000D01*
X13502000Y-11517000D02*
X13422000Y-11597000D01*
X14184000Y-10755000D02*
X14264000Y-10835000D01*
X14264000Y-10755000D02*
X14184000Y-10835000D01*
X14184000Y-11009000D02*
X14264000Y-11089000D01*
X14264000Y-11009000D02*
X14184000Y-11089000D01*
X14184000Y-11263000D02*
X14264000Y-11343000D01*
X14264000Y-11263000D02*
X14184000Y-11343000D01*
X14184000Y-11517000D02*
X14264000Y-11597000D01*
X14264000Y-11517000D02*
X14184000Y-11597000D01*
X14501500Y-10503000D02*
X14581500Y-10583000D01*
X14581500Y-10503000D02*
X14501500Y-10583000D01*
X14501500Y-10753000D02*
X14581500Y-10833000D01*
X14581500Y-10753000D02*
X14501500Y-10833000D01*
D10*
X15544000Y-10795000D02*
G75*
G03*
X15544000Y-10795000I-50000J0D01*
G01*
X15544000Y-11049000D02*
G75*
G03*
X15544000Y-11049000I-50000J0D01*
G01*
X15544000Y-11303000D02*
G75*
G03*
X15544000Y-11303000I-50000J0D01*
G01*
D13*
X11049000Y-10426500D02*
X11049000Y-10528500D01*
X10998000Y-10477500D02*
X11100000Y-10477500D01*
X11303000Y-10426500D02*
X11303000Y-10528500D01*
X11252000Y-10477500D02*
X11354000Y-10477500D01*
X11557000Y-10426500D02*
X11557000Y-10528500D01*
X11506000Y-10477500D02*
X11608000Y-10477500D01*
X11811000Y-10426500D02*
X11811000Y-10528500D01*
X11760000Y-10477500D02*
X11862000Y-10477500D01*
X12319000Y-10426500D02*
X12319000Y-10528500D01*
X12268000Y-10477500D02*
X12370000Y-10477500D01*
X12573000Y-10426500D02*
X12573000Y-10528500D01*
X12522000Y-10477500D02*
X12624000Y-10477500D01*
X12827000Y-10426500D02*
X12827000Y-10528500D01*
X12776000Y-10477500D02*
X12878000Y-10477500D01*
X13081000Y-10426500D02*
X13081000Y-10528500D01*
X13030000Y-10477500D02*
X13132000Y-10477500D01*
X13906500Y-12141000D02*
X13906500Y-12243000D01*
X13855500Y-12192000D02*
X13957500Y-12192000D01*
X14160500Y-12141000D02*
X14160500Y-12243000D01*
X14109500Y-12192000D02*
X14211500Y-12192000D01*
X14414500Y-12141000D02*
X14414500Y-12243000D01*
X14363500Y-12192000D02*
X14465500Y-12192000D01*
X14668500Y-12141000D02*
X14668500Y-12243000D01*
X14617500Y-12192000D02*
X14719500Y-12192000D01*
X15113000Y-12141000D02*
X15113000Y-12243000D01*
X15062000Y-12192000D02*
X15164000Y-12192000D01*
X15367000Y-12141000D02*
X15367000Y-12243000D01*
X15316000Y-12192000D02*
X15418000Y-12192000D01*
X15621000Y-12141000D02*
X15621000Y-12243000D01*
X15570000Y-12192000D02*
X15672000Y-12192000D01*
X15875000Y-12141000D02*
X15875000Y-12243000D01*
X15824000Y-12192000D02*
X15926000Y-12192000D01*
D14*
X11237872Y-11364872D02*
X11237872Y-11241128D01*
X11114128Y-11241128D01*
X11114128Y-11364872D01*
X11237872Y-11364872D01*
X11745872Y-11364872D02*
X11745872Y-11241128D01*
X11622128Y-11241128D01*
X11622128Y-11364872D01*
X11745872Y-11364872D01*
X12253872Y-11364872D02*
X12253872Y-11241128D01*
X12130128Y-11241128D01*
X12130128Y-11364872D01*
X12253872Y-11364872D01*
X12761872Y-11364872D02*
X12761872Y-11241128D01*
X12638128Y-11241128D01*
X12638128Y-11364872D01*
X12761872Y-11364872D01*
D11*
X10255777Y-12991484D02*
X10255777Y-12791484D01*
X10255777Y-12791484D02*
X10303396Y-12791484D01*
X10303396Y-12791484D02*
X10331967Y-12801008D01*
X10331967Y-12801008D02*
X10351015Y-12820055D01*
X10351015Y-12820055D02*
X10360539Y-12839103D01*
X10360539Y-12839103D02*
X10370063Y-12877198D01*
X10370063Y-12877198D02*
X10370063Y-12905769D01*
X10370063Y-12905769D02*
X10360539Y-12943865D01*
X10360539Y-12943865D02*
X10351015Y-12962912D01*
X10351015Y-12962912D02*
X10331967Y-12981960D01*
X10331967Y-12981960D02*
X10303396Y-12991484D01*
X10303396Y-12991484D02*
X10255777Y-12991484D01*
X10455777Y-12991484D02*
X10455777Y-12858150D01*
X10455777Y-12896246D02*
X10465301Y-12877198D01*
X10465301Y-12877198D02*
X10474824Y-12867674D01*
X10474824Y-12867674D02*
X10493872Y-12858150D01*
X10493872Y-12858150D02*
X10512920Y-12858150D01*
X10579586Y-12991484D02*
X10579586Y-12858150D01*
X10579586Y-12791484D02*
X10570063Y-12801008D01*
X10570063Y-12801008D02*
X10579586Y-12810531D01*
X10579586Y-12810531D02*
X10589110Y-12801008D01*
X10589110Y-12801008D02*
X10579586Y-12791484D01*
X10579586Y-12791484D02*
X10579586Y-12810531D01*
X10703396Y-12991484D02*
X10684348Y-12981960D01*
X10684348Y-12981960D02*
X10674824Y-12962912D01*
X10674824Y-12962912D02*
X10674824Y-12791484D01*
X10808158Y-12991484D02*
X10789110Y-12981960D01*
X10789110Y-12981960D02*
X10779586Y-12962912D01*
X10779586Y-12962912D02*
X10779586Y-12791484D01*
X11036729Y-12991484D02*
X11036729Y-12791484D01*
X11036729Y-12791484D02*
X11103396Y-12934341D01*
X11103396Y-12934341D02*
X11170063Y-12791484D01*
X11170063Y-12791484D02*
X11170063Y-12991484D01*
X11351015Y-12991484D02*
X11351015Y-12886722D01*
X11351015Y-12886722D02*
X11341491Y-12867674D01*
X11341491Y-12867674D02*
X11322443Y-12858150D01*
X11322443Y-12858150D02*
X11284348Y-12858150D01*
X11284348Y-12858150D02*
X11265301Y-12867674D01*
X11351015Y-12981960D02*
X11331967Y-12991484D01*
X11331967Y-12991484D02*
X11284348Y-12991484D01*
X11284348Y-12991484D02*
X11265301Y-12981960D01*
X11265301Y-12981960D02*
X11255777Y-12962912D01*
X11255777Y-12962912D02*
X11255777Y-12943865D01*
X11255777Y-12943865D02*
X11265301Y-12924817D01*
X11265301Y-12924817D02*
X11284348Y-12915293D01*
X11284348Y-12915293D02*
X11331967Y-12915293D01*
X11331967Y-12915293D02*
X11351015Y-12905769D01*
X11446253Y-12858150D02*
X11446253Y-13058150D01*
X11446253Y-12867674D02*
X11465301Y-12858150D01*
X11465301Y-12858150D02*
X11503396Y-12858150D01*
X11503396Y-12858150D02*
X11522443Y-12867674D01*
X11522443Y-12867674D02*
X11531967Y-12877198D01*
X11531967Y-12877198D02*
X11541491Y-12896246D01*
X11541491Y-12896246D02*
X11541491Y-12953388D01*
X11541491Y-12953388D02*
X11531967Y-12972436D01*
X11531967Y-12972436D02*
X11522443Y-12981960D01*
X11522443Y-12981960D02*
X11503396Y-12991484D01*
X11503396Y-12991484D02*
X11465301Y-12991484D01*
X11465301Y-12991484D02*
X11446253Y-12981960D01*
X11627205Y-12972436D02*
X11636729Y-12981960D01*
X11636729Y-12981960D02*
X11627205Y-12991484D01*
X11627205Y-12991484D02*
X11617682Y-12981960D01*
X11617682Y-12981960D02*
X11627205Y-12972436D01*
X11627205Y-12972436D02*
X11627205Y-12991484D01*
X11627205Y-12867674D02*
X11636729Y-12877198D01*
X11636729Y-12877198D02*
X11627205Y-12886722D01*
X11627205Y-12886722D02*
X11617682Y-12877198D01*
X11617682Y-12877198D02*
X11627205Y-12867674D01*
X11627205Y-12867674D02*
X11627205Y-12886722D01*
D12*
X9915000Y-13280000D02*
X9995000Y-13360000D01*
X9995000Y-13280000D02*
X9915000Y-13360000D01*
D11*
X10293872Y-13211484D02*
X10312920Y-13211484D01*
X10312920Y-13211484D02*
X10331967Y-13221008D01*
X10331967Y-13221008D02*
X10341491Y-13230531D01*
X10341491Y-13230531D02*
X10351015Y-13249579D01*
X10351015Y-13249579D02*
X10360539Y-13287674D01*
X10360539Y-13287674D02*
X10360539Y-13335293D01*
X10360539Y-13335293D02*
X10351015Y-13373388D01*
X10351015Y-13373388D02*
X10341491Y-13392436D01*
X10341491Y-13392436D02*
X10331967Y-13401960D01*
X10331967Y-13401960D02*
X10312920Y-13411484D01*
X10312920Y-13411484D02*
X10293872Y-13411484D01*
X10293872Y-13411484D02*
X10274824Y-13401960D01*
X10274824Y-13401960D02*
X10265301Y-13392436D01*
X10265301Y-13392436D02*
X10255777Y-13373388D01*
X10255777Y-13373388D02*
X10246253Y-13335293D01*
X10246253Y-13335293D02*
X10246253Y-13287674D01*
X10246253Y-13287674D02*
X10255777Y-13249579D01*
X10255777Y-13249579D02*
X10265301Y-13230531D01*
X10265301Y-13230531D02*
X10274824Y-13221008D01*
X10274824Y-13221008D02*
X10293872Y-13211484D01*
X10446253Y-13392436D02*
X10455777Y-13401960D01*
X10455777Y-13401960D02*
X10446253Y-13411484D01*
X10446253Y-13411484D02*
X10436729Y-13401960D01*
X10436729Y-13401960D02*
X10446253Y-13392436D01*
X10446253Y-13392436D02*
X10446253Y-13411484D01*
X10570063Y-13297198D02*
X10551015Y-13287674D01*
X10551015Y-13287674D02*
X10541491Y-13278150D01*
X10541491Y-13278150D02*
X10531967Y-13259103D01*
X10531967Y-13259103D02*
X10531967Y-13249579D01*
X10531967Y-13249579D02*
X10541491Y-13230531D01*
X10541491Y-13230531D02*
X10551015Y-13221008D01*
X10551015Y-13221008D02*
X10570063Y-13211484D01*
X10570063Y-13211484D02*
X10608158Y-13211484D01*
X10608158Y-13211484D02*
X10627205Y-13221008D01*
X10627205Y-13221008D02*
X10636729Y-13230531D01*
X10636729Y-13230531D02*
X10646253Y-13249579D01*
X10646253Y-13249579D02*
X10646253Y-13259103D01*
X10646253Y-13259103D02*
X10636729Y-13278150D01*
X10636729Y-13278150D02*
X10627205Y-13287674D01*
X10627205Y-13287674D02*
X10608158Y-13297198D01*
X10608158Y-13297198D02*
X10570063Y-13297198D01*
X10570063Y-13297198D02*
X10551015Y-13306722D01*
X10551015Y-13306722D02*
X10541491Y-13316246D01*
X10541491Y-13316246D02*
X10531967Y-13335293D01*
X10531967Y-13335293D02*
X10531967Y-13373388D01*
X10531967Y-13373388D02*
X10541491Y-13392436D01*
X10541491Y-13392436D02*
X10551015Y-13401960D01*
X10551015Y-13401960D02*
X10570063Y-13411484D01*
X10570063Y-13411484D02*
X10608158Y-13411484D01*
X10608158Y-13411484D02*
X10627205Y-13401960D01*
X10627205Y-13401960D02*
X10636729Y-13392436D01*
X10636729Y-13392436D02*
X10646253Y-13373388D01*
X10646253Y-13373388D02*
X10646253Y-13335293D01*
X10646253Y-13335293D02*
X10636729Y-13316246D01*
X10636729Y-13316246D02*
X10627205Y-13306722D01*
X10627205Y-13306722D02*
X10608158Y-13297198D01*
X10770063Y-13211484D02*
X10789110Y-13211484D01*
X10789110Y-13211484D02*
X10808158Y-13221008D01*
X10808158Y-13221008D02*
X10817682Y-13230531D01*
X10817682Y-13230531D02*
X10827205Y-13249579D01*
X10827205Y-13249579D02*
X10836729Y-13287674D01*
X10836729Y-13287674D02*
X10836729Y-13335293D01*
X10836729Y-13335293D02*
X10827205Y-13373388D01*
X10827205Y-13373388D02*
X10817682Y-13392436D01*
X10817682Y-13392436D02*
X10808158Y-13401960D01*
X10808158Y-13401960D02*
X10789110Y-13411484D01*
X10789110Y-13411484D02*
X10770063Y-13411484D01*
X10770063Y-13411484D02*
X10751015Y-13401960D01*
X10751015Y-13401960D02*
X10741491Y-13392436D01*
X10741491Y-13392436D02*
X10731967Y-13373388D01*
X10731967Y-13373388D02*
X10722444Y-13335293D01*
X10722444Y-13335293D02*
X10722444Y-13287674D01*
X10722444Y-13287674D02*
X10731967Y-13249579D01*
X10731967Y-13249579D02*
X10741491Y-13230531D01*
X10741491Y-13230531D02*
X10751015Y-13221008D01*
X10751015Y-13221008D02*
X10770063Y-13211484D01*
X10960539Y-13211484D02*
X10979586Y-13211484D01*
X10979586Y-13211484D02*
X10998634Y-13221008D01*
X10998634Y-13221008D02*
X11008158Y-13230531D01*
X11008158Y-13230531D02*
X11017682Y-13249579D01*
X11017682Y-13249579D02*
X11027205Y-13287674D01*
X11027205Y-13287674D02*
X11027205Y-13335293D01*
X11027205Y-13335293D02*
X11017682Y-13373388D01*
X11017682Y-13373388D02*
X11008158Y-13392436D01*
X11008158Y-13392436D02*
X10998634Y-13401960D01*
X10998634Y-13401960D02*
X10979586Y-13411484D01*
X10979586Y-13411484D02*
X10960539Y-13411484D01*
X10960539Y-13411484D02*
X10941491Y-13401960D01*
X10941491Y-13401960D02*
X10931967Y-13392436D01*
X10931967Y-13392436D02*
X10922444Y-13373388D01*
X10922444Y-13373388D02*
X10912920Y-13335293D01*
X10912920Y-13335293D02*
X10912920Y-13287674D01*
X10912920Y-13287674D02*
X10922444Y-13249579D01*
X10922444Y-13249579D02*
X10931967Y-13230531D01*
X10931967Y-13230531D02*
X10941491Y-13221008D01*
X10941491Y-13221008D02*
X10960539Y-13211484D01*
X11112920Y-13411484D02*
X11112920Y-13278150D01*
X11112920Y-13297198D02*
X11122444Y-13287674D01*
X11122444Y-13287674D02*
X11141491Y-13278150D01*
X11141491Y-13278150D02*
X11170063Y-13278150D01*
X11170063Y-13278150D02*
X11189110Y-13287674D01*
X11189110Y-13287674D02*
X11198634Y-13306722D01*
X11198634Y-13306722D02*
X11198634Y-13411484D01*
X11198634Y-13306722D02*
X11208158Y-13287674D01*
X11208158Y-13287674D02*
X11227205Y-13278150D01*
X11227205Y-13278150D02*
X11255777Y-13278150D01*
X11255777Y-13278150D02*
X11274824Y-13287674D01*
X11274824Y-13287674D02*
X11284348Y-13306722D01*
X11284348Y-13306722D02*
X11284348Y-13411484D01*
X11379586Y-13411484D02*
X11379586Y-13278150D01*
X11379586Y-13297198D02*
X11389110Y-13287674D01*
X11389110Y-13287674D02*
X11408158Y-13278150D01*
X11408158Y-13278150D02*
X11436729Y-13278150D01*
X11436729Y-13278150D02*
X11455777Y-13287674D01*
X11455777Y-13287674D02*
X11465301Y-13306722D01*
X11465301Y-13306722D02*
X11465301Y-13411484D01*
X11465301Y-13306722D02*
X11474824Y-13287674D01*
X11474824Y-13287674D02*
X11493872Y-13278150D01*
X11493872Y-13278150D02*
X11522443Y-13278150D01*
X11522443Y-13278150D02*
X11541491Y-13287674D01*
X11541491Y-13287674D02*
X11551015Y-13306722D01*
X11551015Y-13306722D02*
X11551015Y-13411484D01*
X11941491Y-13201960D02*
X11770063Y-13459103D01*
X12198634Y-13211484D02*
X12217682Y-13211484D01*
X12217682Y-13211484D02*
X12236729Y-13221008D01*
X12236729Y-13221008D02*
X12246253Y-13230531D01*
X12246253Y-13230531D02*
X12255777Y-13249579D01*
X12255777Y-13249579D02*
X12265301Y-13287674D01*
X12265301Y-13287674D02*
X12265301Y-13335293D01*
X12265301Y-13335293D02*
X12255777Y-13373388D01*
X12255777Y-13373388D02*
X12246253Y-13392436D01*
X12246253Y-13392436D02*
X12236729Y-13401960D01*
X12236729Y-13401960D02*
X12217682Y-13411484D01*
X12217682Y-13411484D02*
X12198634Y-13411484D01*
X12198634Y-13411484D02*
X12179586Y-13401960D01*
X12179586Y-13401960D02*
X12170063Y-13392436D01*
X12170063Y-13392436D02*
X12160539Y-13373388D01*
X12160539Y-13373388D02*
X12151015Y-13335293D01*
X12151015Y-13335293D02*
X12151015Y-13287674D01*
X12151015Y-13287674D02*
X12160539Y-13249579D01*
X12160539Y-13249579D02*
X12170063Y-13230531D01*
X12170063Y-13230531D02*
X12179586Y-13221008D01*
X12179586Y-13221008D02*
X12198634Y-13211484D01*
X12351015Y-13392436D02*
X12360539Y-13401960D01*
X12360539Y-13401960D02*
X12351015Y-13411484D01*
X12351015Y-13411484D02*
X12341491Y-13401960D01*
X12341491Y-13401960D02*
X12351015Y-13392436D01*
X12351015Y-13392436D02*
X12351015Y-13411484D01*
X12484348Y-13211484D02*
X12503396Y-13211484D01*
X12503396Y-13211484D02*
X12522444Y-13221008D01*
X12522444Y-13221008D02*
X12531967Y-13230531D01*
X12531967Y-13230531D02*
X12541491Y-13249579D01*
X12541491Y-13249579D02*
X12551015Y-13287674D01*
X12551015Y-13287674D02*
X12551015Y-13335293D01*
X12551015Y-13335293D02*
X12541491Y-13373388D01*
X12541491Y-13373388D02*
X12531967Y-13392436D01*
X12531967Y-13392436D02*
X12522444Y-13401960D01*
X12522444Y-13401960D02*
X12503396Y-13411484D01*
X12503396Y-13411484D02*
X12484348Y-13411484D01*
X12484348Y-13411484D02*
X12465301Y-13401960D01*
X12465301Y-13401960D02*
X12455777Y-13392436D01*
X12455777Y-13392436D02*
X12446253Y-13373388D01*
X12446253Y-13373388D02*
X12436729Y-13335293D01*
X12436729Y-13335293D02*
X12436729Y-13287674D01*
X12436729Y-13287674D02*
X12446253Y-13249579D01*
X12446253Y-13249579D02*
X12455777Y-13230531D01*
X12455777Y-13230531D02*
X12465301Y-13221008D01*
X12465301Y-13221008D02*
X12484348Y-13211484D01*
X12617682Y-13211484D02*
X12741491Y-13211484D01*
X12741491Y-13211484D02*
X12674825Y-13287674D01*
X12674825Y-13287674D02*
X12703396Y-13287674D01*
X12703396Y-13287674D02*
X12722444Y-13297198D01*
X12722444Y-13297198D02*
X12731967Y-13306722D01*
X12731967Y-13306722D02*
X12741491Y-13325769D01*
X12741491Y-13325769D02*
X12741491Y-13373388D01*
X12741491Y-13373388D02*
X12731967Y-13392436D01*
X12731967Y-13392436D02*
X12722444Y-13401960D01*
X12722444Y-13401960D02*
X12703396Y-13411484D01*
X12703396Y-13411484D02*
X12646253Y-13411484D01*
X12646253Y-13411484D02*
X12627206Y-13401960D01*
X12627206Y-13401960D02*
X12617682Y-13392436D01*
X12931967Y-13411484D02*
X12817682Y-13411484D01*
X12874825Y-13411484D02*
X12874825Y-13211484D01*
X12874825Y-13211484D02*
X12855777Y-13240055D01*
X12855777Y-13240055D02*
X12836729Y-13259103D01*
X12836729Y-13259103D02*
X12817682Y-13268627D01*
X13112920Y-13211484D02*
X13017682Y-13211484D01*
X13017682Y-13211484D02*
X13008158Y-13306722D01*
X13008158Y-13306722D02*
X13017682Y-13297198D01*
X13017682Y-13297198D02*
X13036729Y-13287674D01*
X13036729Y-13287674D02*
X13084348Y-13287674D01*
X13084348Y-13287674D02*
X13103396Y-13297198D01*
X13103396Y-13297198D02*
X13112920Y-13306722D01*
X13112920Y-13306722D02*
X13122444Y-13325769D01*
X13122444Y-13325769D02*
X13122444Y-13373388D01*
X13122444Y-13373388D02*
X13112920Y-13392436D01*
X13112920Y-13392436D02*
X13103396Y-13401960D01*
X13103396Y-13401960D02*
X13084348Y-13411484D01*
X13084348Y-13411484D02*
X13036729Y-13411484D01*
X13036729Y-13411484D02*
X13017682Y-13401960D01*
X13017682Y-13401960D02*
X13008158Y-13392436D01*
X13198634Y-13211484D02*
X13198634Y-13249579D01*
X13274825Y-13211484D02*
X13274825Y-13249579D01*
X13570063Y-13487674D02*
X13560539Y-13478150D01*
X13560539Y-13478150D02*
X13541491Y-13449579D01*
X13541491Y-13449579D02*
X13531968Y-13430531D01*
X13531968Y-13430531D02*
X13522444Y-13401960D01*
X13522444Y-13401960D02*
X13512920Y-13354341D01*
X13512920Y-13354341D02*
X13512920Y-13316246D01*
X13512920Y-13316246D02*
X13522444Y-13268627D01*
X13522444Y-13268627D02*
X13531968Y-13240055D01*
X13531968Y-13240055D02*
X13541491Y-13221008D01*
X13541491Y-13221008D02*
X13560539Y-13192436D01*
X13560539Y-13192436D02*
X13570063Y-13182912D01*
X13751015Y-13411484D02*
X13636729Y-13411484D01*
X13693872Y-13411484D02*
X13693872Y-13211484D01*
X13693872Y-13211484D02*
X13674825Y-13240055D01*
X13674825Y-13240055D02*
X13655777Y-13259103D01*
X13655777Y-13259103D02*
X13636729Y-13268627D01*
X13874825Y-13211484D02*
X13893872Y-13211484D01*
X13893872Y-13211484D02*
X13912920Y-13221008D01*
X13912920Y-13221008D02*
X13922444Y-13230531D01*
X13922444Y-13230531D02*
X13931968Y-13249579D01*
X13931968Y-13249579D02*
X13941491Y-13287674D01*
X13941491Y-13287674D02*
X13941491Y-13335293D01*
X13941491Y-13335293D02*
X13931968Y-13373388D01*
X13931968Y-13373388D02*
X13922444Y-13392436D01*
X13922444Y-13392436D02*
X13912920Y-13401960D01*
X13912920Y-13401960D02*
X13893872Y-13411484D01*
X13893872Y-13411484D02*
X13874825Y-13411484D01*
X13874825Y-13411484D02*
X13855777Y-13401960D01*
X13855777Y-13401960D02*
X13846253Y-13392436D01*
X13846253Y-13392436D02*
X13836729Y-13373388D01*
X13836729Y-13373388D02*
X13827206Y-13335293D01*
X13827206Y-13335293D02*
X13827206Y-13287674D01*
X13827206Y-13287674D02*
X13836729Y-13249579D01*
X13836729Y-13249579D02*
X13846253Y-13230531D01*
X13846253Y-13230531D02*
X13855777Y-13221008D01*
X13855777Y-13221008D02*
X13874825Y-13211484D01*
X14179587Y-13411484D02*
X14179587Y-13211484D01*
X14265301Y-13411484D02*
X14265301Y-13306722D01*
X14265301Y-13306722D02*
X14255777Y-13287674D01*
X14255777Y-13287674D02*
X14236730Y-13278150D01*
X14236730Y-13278150D02*
X14208158Y-13278150D01*
X14208158Y-13278150D02*
X14189110Y-13287674D01*
X14189110Y-13287674D02*
X14179587Y-13297198D01*
X14389110Y-13411484D02*
X14370063Y-13401960D01*
X14370063Y-13401960D02*
X14360539Y-13392436D01*
X14360539Y-13392436D02*
X14351015Y-13373388D01*
X14351015Y-13373388D02*
X14351015Y-13316246D01*
X14351015Y-13316246D02*
X14360539Y-13297198D01*
X14360539Y-13297198D02*
X14370063Y-13287674D01*
X14370063Y-13287674D02*
X14389110Y-13278150D01*
X14389110Y-13278150D02*
X14417682Y-13278150D01*
X14417682Y-13278150D02*
X14436730Y-13287674D01*
X14436730Y-13287674D02*
X14446253Y-13297198D01*
X14446253Y-13297198D02*
X14455777Y-13316246D01*
X14455777Y-13316246D02*
X14455777Y-13373388D01*
X14455777Y-13373388D02*
X14446253Y-13392436D01*
X14446253Y-13392436D02*
X14436730Y-13401960D01*
X14436730Y-13401960D02*
X14417682Y-13411484D01*
X14417682Y-13411484D02*
X14389110Y-13411484D01*
X14570063Y-13411484D02*
X14551015Y-13401960D01*
X14551015Y-13401960D02*
X14541491Y-13382912D01*
X14541491Y-13382912D02*
X14541491Y-13211484D01*
X14722444Y-13401960D02*
X14703396Y-13411484D01*
X14703396Y-13411484D02*
X14665301Y-13411484D01*
X14665301Y-13411484D02*
X14646253Y-13401960D01*
X14646253Y-13401960D02*
X14636730Y-13382912D01*
X14636730Y-13382912D02*
X14636730Y-13306722D01*
X14636730Y-13306722D02*
X14646253Y-13287674D01*
X14646253Y-13287674D02*
X14665301Y-13278150D01*
X14665301Y-13278150D02*
X14703396Y-13278150D01*
X14703396Y-13278150D02*
X14722444Y-13287674D01*
X14722444Y-13287674D02*
X14731968Y-13306722D01*
X14731968Y-13306722D02*
X14731968Y-13325769D01*
X14731968Y-13325769D02*
X14636730Y-13344817D01*
X14808158Y-13401960D02*
X14827206Y-13411484D01*
X14827206Y-13411484D02*
X14865301Y-13411484D01*
X14865301Y-13411484D02*
X14884349Y-13401960D01*
X14884349Y-13401960D02*
X14893872Y-13382912D01*
X14893872Y-13382912D02*
X14893872Y-13373388D01*
X14893872Y-13373388D02*
X14884349Y-13354341D01*
X14884349Y-13354341D02*
X14865301Y-13344817D01*
X14865301Y-13344817D02*
X14836730Y-13344817D01*
X14836730Y-13344817D02*
X14817682Y-13335293D01*
X14817682Y-13335293D02*
X14808158Y-13316246D01*
X14808158Y-13316246D02*
X14808158Y-13306722D01*
X14808158Y-13306722D02*
X14817682Y-13287674D01*
X14817682Y-13287674D02*
X14836730Y-13278150D01*
X14836730Y-13278150D02*
X14865301Y-13278150D01*
X14865301Y-13278150D02*
X14884349Y-13287674D01*
X14960539Y-13487674D02*
X14970063Y-13478150D01*
X14970063Y-13478150D02*
X14989111Y-13449579D01*
X14989111Y-13449579D02*
X14998634Y-13430531D01*
X14998634Y-13430531D02*
X15008158Y-13401960D01*
X15008158Y-13401960D02*
X15017682Y-13354341D01*
X15017682Y-13354341D02*
X15017682Y-13316246D01*
X15017682Y-13316246D02*
X15008158Y-13268627D01*
X15008158Y-13268627D02*
X14998634Y-13240055D01*
X14998634Y-13240055D02*
X14989111Y-13221008D01*
X14989111Y-13221008D02*
X14970063Y-13192436D01*
X14970063Y-13192436D02*
X14960539Y-13182912D01*
D10*
X9995000Y-13584000D02*
G75*
G03*
X9995000Y-13584000I-50000J0D01*
G01*
D11*
X10360539Y-13675484D02*
X10246253Y-13675484D01*
X10303396Y-13675484D02*
X10303396Y-13475484D01*
X10303396Y-13475484D02*
X10284348Y-13504055D01*
X10284348Y-13504055D02*
X10265301Y-13523103D01*
X10265301Y-13523103D02*
X10246253Y-13532627D01*
X10446253Y-13656436D02*
X10455777Y-13665960D01*
X10455777Y-13665960D02*
X10446253Y-13675484D01*
X10446253Y-13675484D02*
X10436729Y-13665960D01*
X10436729Y-13665960D02*
X10446253Y-13656436D01*
X10446253Y-13656436D02*
X10446253Y-13675484D01*
X10579586Y-13475484D02*
X10598634Y-13475484D01*
X10598634Y-13475484D02*
X10617682Y-13485008D01*
X10617682Y-13485008D02*
X10627205Y-13494531D01*
X10627205Y-13494531D02*
X10636729Y-13513579D01*
X10636729Y-13513579D02*
X10646253Y-13551674D01*
X10646253Y-13551674D02*
X10646253Y-13599293D01*
X10646253Y-13599293D02*
X10636729Y-13637388D01*
X10636729Y-13637388D02*
X10627205Y-13656436D01*
X10627205Y-13656436D02*
X10617682Y-13665960D01*
X10617682Y-13665960D02*
X10598634Y-13675484D01*
X10598634Y-13675484D02*
X10579586Y-13675484D01*
X10579586Y-13675484D02*
X10560539Y-13665960D01*
X10560539Y-13665960D02*
X10551015Y-13656436D01*
X10551015Y-13656436D02*
X10541491Y-13637388D01*
X10541491Y-13637388D02*
X10531967Y-13599293D01*
X10531967Y-13599293D02*
X10531967Y-13551674D01*
X10531967Y-13551674D02*
X10541491Y-13513579D01*
X10541491Y-13513579D02*
X10551015Y-13494531D01*
X10551015Y-13494531D02*
X10560539Y-13485008D01*
X10560539Y-13485008D02*
X10579586Y-13475484D01*
X10770063Y-13475484D02*
X10789110Y-13475484D01*
X10789110Y-13475484D02*
X10808158Y-13485008D01*
X10808158Y-13485008D02*
X10817682Y-13494531D01*
X10817682Y-13494531D02*
X10827205Y-13513579D01*
X10827205Y-13513579D02*
X10836729Y-13551674D01*
X10836729Y-13551674D02*
X10836729Y-13599293D01*
X10836729Y-13599293D02*
X10827205Y-13637388D01*
X10827205Y-13637388D02*
X10817682Y-13656436D01*
X10817682Y-13656436D02*
X10808158Y-13665960D01*
X10808158Y-13665960D02*
X10789110Y-13675484D01*
X10789110Y-13675484D02*
X10770063Y-13675484D01*
X10770063Y-13675484D02*
X10751015Y-13665960D01*
X10751015Y-13665960D02*
X10741491Y-13656436D01*
X10741491Y-13656436D02*
X10731967Y-13637388D01*
X10731967Y-13637388D02*
X10722444Y-13599293D01*
X10722444Y-13599293D02*
X10722444Y-13551674D01*
X10722444Y-13551674D02*
X10731967Y-13513579D01*
X10731967Y-13513579D02*
X10741491Y-13494531D01*
X10741491Y-13494531D02*
X10751015Y-13485008D01*
X10751015Y-13485008D02*
X10770063Y-13475484D01*
X10960539Y-13475484D02*
X10979586Y-13475484D01*
X10979586Y-13475484D02*
X10998634Y-13485008D01*
X10998634Y-13485008D02*
X11008158Y-13494531D01*
X11008158Y-13494531D02*
X11017682Y-13513579D01*
X11017682Y-13513579D02*
X11027205Y-13551674D01*
X11027205Y-13551674D02*
X11027205Y-13599293D01*
X11027205Y-13599293D02*
X11017682Y-13637388D01*
X11017682Y-13637388D02*
X11008158Y-13656436D01*
X11008158Y-13656436D02*
X10998634Y-13665960D01*
X10998634Y-13665960D02*
X10979586Y-13675484D01*
X10979586Y-13675484D02*
X10960539Y-13675484D01*
X10960539Y-13675484D02*
X10941491Y-13665960D01*
X10941491Y-13665960D02*
X10931967Y-13656436D01*
X10931967Y-13656436D02*
X10922444Y-13637388D01*
X10922444Y-13637388D02*
X10912920Y-13599293D01*
X10912920Y-13599293D02*
X10912920Y-13551674D01*
X10912920Y-13551674D02*
X10922444Y-13513579D01*
X10922444Y-13513579D02*
X10931967Y-13494531D01*
X10931967Y-13494531D02*
X10941491Y-13485008D01*
X10941491Y-13485008D02*
X10960539Y-13475484D01*
X11112920Y-13675484D02*
X11112920Y-13542150D01*
X11112920Y-13561198D02*
X11122444Y-13551674D01*
X11122444Y-13551674D02*
X11141491Y-13542150D01*
X11141491Y-13542150D02*
X11170063Y-13542150D01*
X11170063Y-13542150D02*
X11189110Y-13551674D01*
X11189110Y-13551674D02*
X11198634Y-13570722D01*
X11198634Y-13570722D02*
X11198634Y-13675484D01*
X11198634Y-13570722D02*
X11208158Y-13551674D01*
X11208158Y-13551674D02*
X11227205Y-13542150D01*
X11227205Y-13542150D02*
X11255777Y-13542150D01*
X11255777Y-13542150D02*
X11274824Y-13551674D01*
X11274824Y-13551674D02*
X11284348Y-13570722D01*
X11284348Y-13570722D02*
X11284348Y-13675484D01*
X11379586Y-13675484D02*
X11379586Y-13542150D01*
X11379586Y-13561198D02*
X11389110Y-13551674D01*
X11389110Y-13551674D02*
X11408158Y-13542150D01*
X11408158Y-13542150D02*
X11436729Y-13542150D01*
X11436729Y-13542150D02*
X11455777Y-13551674D01*
X11455777Y-13551674D02*
X11465301Y-13570722D01*
X11465301Y-13570722D02*
X11465301Y-13675484D01*
X11465301Y-13570722D02*
X11474824Y-13551674D01*
X11474824Y-13551674D02*
X11493872Y-13542150D01*
X11493872Y-13542150D02*
X11522443Y-13542150D01*
X11522443Y-13542150D02*
X11541491Y-13551674D01*
X11541491Y-13551674D02*
X11551015Y-13570722D01*
X11551015Y-13570722D02*
X11551015Y-13675484D01*
X11941491Y-13465960D02*
X11770063Y-13723103D01*
X12198634Y-13475484D02*
X12217682Y-13475484D01*
X12217682Y-13475484D02*
X12236729Y-13485008D01*
X12236729Y-13485008D02*
X12246253Y-13494531D01*
X12246253Y-13494531D02*
X12255777Y-13513579D01*
X12255777Y-13513579D02*
X12265301Y-13551674D01*
X12265301Y-13551674D02*
X12265301Y-13599293D01*
X12265301Y-13599293D02*
X12255777Y-13637388D01*
X12255777Y-13637388D02*
X12246253Y-13656436D01*
X12246253Y-13656436D02*
X12236729Y-13665960D01*
X12236729Y-13665960D02*
X12217682Y-13675484D01*
X12217682Y-13675484D02*
X12198634Y-13675484D01*
X12198634Y-13675484D02*
X12179586Y-13665960D01*
X12179586Y-13665960D02*
X12170063Y-13656436D01*
X12170063Y-13656436D02*
X12160539Y-13637388D01*
X12160539Y-13637388D02*
X12151015Y-13599293D01*
X12151015Y-13599293D02*
X12151015Y-13551674D01*
X12151015Y-13551674D02*
X12160539Y-13513579D01*
X12160539Y-13513579D02*
X12170063Y-13494531D01*
X12170063Y-13494531D02*
X12179586Y-13485008D01*
X12179586Y-13485008D02*
X12198634Y-13475484D01*
X12351015Y-13656436D02*
X12360539Y-13665960D01*
X12360539Y-13665960D02*
X12351015Y-13675484D01*
X12351015Y-13675484D02*
X12341491Y-13665960D01*
X12341491Y-13665960D02*
X12351015Y-13656436D01*
X12351015Y-13656436D02*
X12351015Y-13675484D01*
X12484348Y-13475484D02*
X12503396Y-13475484D01*
X12503396Y-13475484D02*
X12522444Y-13485008D01*
X12522444Y-13485008D02*
X12531967Y-13494531D01*
X12531967Y-13494531D02*
X12541491Y-13513579D01*
X12541491Y-13513579D02*
X12551015Y-13551674D01*
X12551015Y-13551674D02*
X12551015Y-13599293D01*
X12551015Y-13599293D02*
X12541491Y-13637388D01*
X12541491Y-13637388D02*
X12531967Y-13656436D01*
X12531967Y-13656436D02*
X12522444Y-13665960D01*
X12522444Y-13665960D02*
X12503396Y-13675484D01*
X12503396Y-13675484D02*
X12484348Y-13675484D01*
X12484348Y-13675484D02*
X12465301Y-13665960D01*
X12465301Y-13665960D02*
X12455777Y-13656436D01*
X12455777Y-13656436D02*
X12446253Y-13637388D01*
X12446253Y-13637388D02*
X12436729Y-13599293D01*
X12436729Y-13599293D02*
X12436729Y-13551674D01*
X12436729Y-13551674D02*
X12446253Y-13513579D01*
X12446253Y-13513579D02*
X12455777Y-13494531D01*
X12455777Y-13494531D02*
X12465301Y-13485008D01*
X12465301Y-13485008D02*
X12484348Y-13475484D01*
X12617682Y-13475484D02*
X12741491Y-13475484D01*
X12741491Y-13475484D02*
X12674825Y-13551674D01*
X12674825Y-13551674D02*
X12703396Y-13551674D01*
X12703396Y-13551674D02*
X12722444Y-13561198D01*
X12722444Y-13561198D02*
X12731967Y-13570722D01*
X12731967Y-13570722D02*
X12741491Y-13589769D01*
X12741491Y-13589769D02*
X12741491Y-13637388D01*
X12741491Y-13637388D02*
X12731967Y-13656436D01*
X12731967Y-13656436D02*
X12722444Y-13665960D01*
X12722444Y-13665960D02*
X12703396Y-13675484D01*
X12703396Y-13675484D02*
X12646253Y-13675484D01*
X12646253Y-13675484D02*
X12627206Y-13665960D01*
X12627206Y-13665960D02*
X12617682Y-13656436D01*
X12836729Y-13675484D02*
X12874825Y-13675484D01*
X12874825Y-13675484D02*
X12893872Y-13665960D01*
X12893872Y-13665960D02*
X12903396Y-13656436D01*
X12903396Y-13656436D02*
X12922444Y-13627865D01*
X12922444Y-13627865D02*
X12931967Y-13589769D01*
X12931967Y-13589769D02*
X12931967Y-13513579D01*
X12931967Y-13513579D02*
X12922444Y-13494531D01*
X12922444Y-13494531D02*
X12912920Y-13485008D01*
X12912920Y-13485008D02*
X12893872Y-13475484D01*
X12893872Y-13475484D02*
X12855777Y-13475484D01*
X12855777Y-13475484D02*
X12836729Y-13485008D01*
X12836729Y-13485008D02*
X12827206Y-13494531D01*
X12827206Y-13494531D02*
X12817682Y-13513579D01*
X12817682Y-13513579D02*
X12817682Y-13561198D01*
X12817682Y-13561198D02*
X12827206Y-13580246D01*
X12827206Y-13580246D02*
X12836729Y-13589769D01*
X12836729Y-13589769D02*
X12855777Y-13599293D01*
X12855777Y-13599293D02*
X12893872Y-13599293D01*
X12893872Y-13599293D02*
X12912920Y-13589769D01*
X12912920Y-13589769D02*
X12922444Y-13580246D01*
X12922444Y-13580246D02*
X12931967Y-13561198D01*
X13103396Y-13542150D02*
X13103396Y-13675484D01*
X13055777Y-13465960D02*
X13008158Y-13608817D01*
X13008158Y-13608817D02*
X13131967Y-13608817D01*
X13198634Y-13475484D02*
X13198634Y-13513579D01*
X13274825Y-13475484D02*
X13274825Y-13513579D01*
X13570063Y-13751674D02*
X13560539Y-13742150D01*
X13560539Y-13742150D02*
X13541491Y-13713579D01*
X13541491Y-13713579D02*
X13531968Y-13694531D01*
X13531968Y-13694531D02*
X13522444Y-13665960D01*
X13522444Y-13665960D02*
X13512920Y-13618341D01*
X13512920Y-13618341D02*
X13512920Y-13580246D01*
X13512920Y-13580246D02*
X13522444Y-13532627D01*
X13522444Y-13532627D02*
X13531968Y-13504055D01*
X13531968Y-13504055D02*
X13541491Y-13485008D01*
X13541491Y-13485008D02*
X13560539Y-13456436D01*
X13560539Y-13456436D02*
X13570063Y-13446912D01*
X13627206Y-13475484D02*
X13751015Y-13475484D01*
X13751015Y-13475484D02*
X13684348Y-13551674D01*
X13684348Y-13551674D02*
X13712920Y-13551674D01*
X13712920Y-13551674D02*
X13731968Y-13561198D01*
X13731968Y-13561198D02*
X13741491Y-13570722D01*
X13741491Y-13570722D02*
X13751015Y-13589769D01*
X13751015Y-13589769D02*
X13751015Y-13637388D01*
X13751015Y-13637388D02*
X13741491Y-13656436D01*
X13741491Y-13656436D02*
X13731968Y-13665960D01*
X13731968Y-13665960D02*
X13712920Y-13675484D01*
X13712920Y-13675484D02*
X13655777Y-13675484D01*
X13655777Y-13675484D02*
X13636729Y-13665960D01*
X13636729Y-13665960D02*
X13627206Y-13656436D01*
X13989110Y-13675484D02*
X13989110Y-13475484D01*
X14074825Y-13675484D02*
X14074825Y-13570722D01*
X14074825Y-13570722D02*
X14065301Y-13551674D01*
X14065301Y-13551674D02*
X14046253Y-13542150D01*
X14046253Y-13542150D02*
X14017682Y-13542150D01*
X14017682Y-13542150D02*
X13998634Y-13551674D01*
X13998634Y-13551674D02*
X13989110Y-13561198D01*
X14198634Y-13675484D02*
X14179587Y-13665960D01*
X14179587Y-13665960D02*
X14170063Y-13656436D01*
X14170063Y-13656436D02*
X14160539Y-13637388D01*
X14160539Y-13637388D02*
X14160539Y-13580246D01*
X14160539Y-13580246D02*
X14170063Y-13561198D01*
X14170063Y-13561198D02*
X14179587Y-13551674D01*
X14179587Y-13551674D02*
X14198634Y-13542150D01*
X14198634Y-13542150D02*
X14227206Y-13542150D01*
X14227206Y-13542150D02*
X14246253Y-13551674D01*
X14246253Y-13551674D02*
X14255777Y-13561198D01*
X14255777Y-13561198D02*
X14265301Y-13580246D01*
X14265301Y-13580246D02*
X14265301Y-13637388D01*
X14265301Y-13637388D02*
X14255777Y-13656436D01*
X14255777Y-13656436D02*
X14246253Y-13665960D01*
X14246253Y-13665960D02*
X14227206Y-13675484D01*
X14227206Y-13675484D02*
X14198634Y-13675484D01*
X14379587Y-13675484D02*
X14360539Y-13665960D01*
X14360539Y-13665960D02*
X14351015Y-13646912D01*
X14351015Y-13646912D02*
X14351015Y-13475484D01*
X14531968Y-13665960D02*
X14512920Y-13675484D01*
X14512920Y-13675484D02*
X14474825Y-13675484D01*
X14474825Y-13675484D02*
X14455777Y-13665960D01*
X14455777Y-13665960D02*
X14446253Y-13646912D01*
X14446253Y-13646912D02*
X14446253Y-13570722D01*
X14446253Y-13570722D02*
X14455777Y-13551674D01*
X14455777Y-13551674D02*
X14474825Y-13542150D01*
X14474825Y-13542150D02*
X14512920Y-13542150D01*
X14512920Y-13542150D02*
X14531968Y-13551674D01*
X14531968Y-13551674D02*
X14541491Y-13570722D01*
X14541491Y-13570722D02*
X14541491Y-13589769D01*
X14541491Y-13589769D02*
X14446253Y-13608817D01*
X14617682Y-13665960D02*
X14636730Y-13675484D01*
X14636730Y-13675484D02*
X14674825Y-13675484D01*
X14674825Y-13675484D02*
X14693872Y-13665960D01*
X14693872Y-13665960D02*
X14703396Y-13646912D01*
X14703396Y-13646912D02*
X14703396Y-13637388D01*
X14703396Y-13637388D02*
X14693872Y-13618341D01*
X14693872Y-13618341D02*
X14674825Y-13608817D01*
X14674825Y-13608817D02*
X14646253Y-13608817D01*
X14646253Y-13608817D02*
X14627206Y-13599293D01*
X14627206Y-13599293D02*
X14617682Y-13580246D01*
X14617682Y-13580246D02*
X14617682Y-13570722D01*
X14617682Y-13570722D02*
X14627206Y-13551674D01*
X14627206Y-13551674D02*
X14646253Y-13542150D01*
X14646253Y-13542150D02*
X14674825Y-13542150D01*
X14674825Y-13542150D02*
X14693872Y-13551674D01*
X14770063Y-13751674D02*
X14779587Y-13742150D01*
X14779587Y-13742150D02*
X14798634Y-13713579D01*
X14798634Y-13713579D02*
X14808158Y-13694531D01*
X14808158Y-13694531D02*
X14817682Y-13665960D01*
X14817682Y-13665960D02*
X14827206Y-13618341D01*
X14827206Y-13618341D02*
X14827206Y-13580246D01*
X14827206Y-13580246D02*
X14817682Y-13532627D01*
X14817682Y-13532627D02*
X14808158Y-13504055D01*
X14808158Y-13504055D02*
X14798634Y-13485008D01*
X14798634Y-13485008D02*
X14779587Y-13456436D01*
X14779587Y-13456436D02*
X14770063Y-13446912D01*
D13*
X9944000Y-13797000D02*
X9944000Y-13899000D01*
X9893000Y-13848000D02*
X9995000Y-13848000D01*
D11*
X10360539Y-13939484D02*
X10246253Y-13939484D01*
X10303396Y-13939484D02*
X10303396Y-13739484D01*
X10303396Y-13739484D02*
X10284348Y-13768055D01*
X10284348Y-13768055D02*
X10265301Y-13787103D01*
X10265301Y-13787103D02*
X10246253Y-13796627D01*
X10446253Y-13920436D02*
X10455777Y-13929960D01*
X10455777Y-13929960D02*
X10446253Y-13939484D01*
X10446253Y-13939484D02*
X10436729Y-13929960D01*
X10436729Y-13929960D02*
X10446253Y-13920436D01*
X10446253Y-13920436D02*
X10446253Y-13939484D01*
X10579586Y-13739484D02*
X10598634Y-13739484D01*
X10598634Y-13739484D02*
X10617682Y-13749008D01*
X10617682Y-13749008D02*
X10627205Y-13758531D01*
X10627205Y-13758531D02*
X10636729Y-13777579D01*
X10636729Y-13777579D02*
X10646253Y-13815674D01*
X10646253Y-13815674D02*
X10646253Y-13863293D01*
X10646253Y-13863293D02*
X10636729Y-13901388D01*
X10636729Y-13901388D02*
X10627205Y-13920436D01*
X10627205Y-13920436D02*
X10617682Y-13929960D01*
X10617682Y-13929960D02*
X10598634Y-13939484D01*
X10598634Y-13939484D02*
X10579586Y-13939484D01*
X10579586Y-13939484D02*
X10560539Y-13929960D01*
X10560539Y-13929960D02*
X10551015Y-13920436D01*
X10551015Y-13920436D02*
X10541491Y-13901388D01*
X10541491Y-13901388D02*
X10531967Y-13863293D01*
X10531967Y-13863293D02*
X10531967Y-13815674D01*
X10531967Y-13815674D02*
X10541491Y-13777579D01*
X10541491Y-13777579D02*
X10551015Y-13758531D01*
X10551015Y-13758531D02*
X10560539Y-13749008D01*
X10560539Y-13749008D02*
X10579586Y-13739484D01*
X10722444Y-13758531D02*
X10731967Y-13749008D01*
X10731967Y-13749008D02*
X10751015Y-13739484D01*
X10751015Y-13739484D02*
X10798634Y-13739484D01*
X10798634Y-13739484D02*
X10817682Y-13749008D01*
X10817682Y-13749008D02*
X10827205Y-13758531D01*
X10827205Y-13758531D02*
X10836729Y-13777579D01*
X10836729Y-13777579D02*
X10836729Y-13796627D01*
X10836729Y-13796627D02*
X10827205Y-13825198D01*
X10827205Y-13825198D02*
X10712920Y-13939484D01*
X10712920Y-13939484D02*
X10836729Y-13939484D01*
X10960539Y-13739484D02*
X10979586Y-13739484D01*
X10979586Y-13739484D02*
X10998634Y-13749008D01*
X10998634Y-13749008D02*
X11008158Y-13758531D01*
X11008158Y-13758531D02*
X11017682Y-13777579D01*
X11017682Y-13777579D02*
X11027205Y-13815674D01*
X11027205Y-13815674D02*
X11027205Y-13863293D01*
X11027205Y-13863293D02*
X11017682Y-13901388D01*
X11017682Y-13901388D02*
X11008158Y-13920436D01*
X11008158Y-13920436D02*
X10998634Y-13929960D01*
X10998634Y-13929960D02*
X10979586Y-13939484D01*
X10979586Y-13939484D02*
X10960539Y-13939484D01*
X10960539Y-13939484D02*
X10941491Y-13929960D01*
X10941491Y-13929960D02*
X10931967Y-13920436D01*
X10931967Y-13920436D02*
X10922444Y-13901388D01*
X10922444Y-13901388D02*
X10912920Y-13863293D01*
X10912920Y-13863293D02*
X10912920Y-13815674D01*
X10912920Y-13815674D02*
X10922444Y-13777579D01*
X10922444Y-13777579D02*
X10931967Y-13758531D01*
X10931967Y-13758531D02*
X10941491Y-13749008D01*
X10941491Y-13749008D02*
X10960539Y-13739484D01*
X11112920Y-13939484D02*
X11112920Y-13806150D01*
X11112920Y-13825198D02*
X11122444Y-13815674D01*
X11122444Y-13815674D02*
X11141491Y-13806150D01*
X11141491Y-13806150D02*
X11170063Y-13806150D01*
X11170063Y-13806150D02*
X11189110Y-13815674D01*
X11189110Y-13815674D02*
X11198634Y-13834722D01*
X11198634Y-13834722D02*
X11198634Y-13939484D01*
X11198634Y-13834722D02*
X11208158Y-13815674D01*
X11208158Y-13815674D02*
X11227205Y-13806150D01*
X11227205Y-13806150D02*
X11255777Y-13806150D01*
X11255777Y-13806150D02*
X11274824Y-13815674D01*
X11274824Y-13815674D02*
X11284348Y-13834722D01*
X11284348Y-13834722D02*
X11284348Y-13939484D01*
X11379586Y-13939484D02*
X11379586Y-13806150D01*
X11379586Y-13825198D02*
X11389110Y-13815674D01*
X11389110Y-13815674D02*
X11408158Y-13806150D01*
X11408158Y-13806150D02*
X11436729Y-13806150D01*
X11436729Y-13806150D02*
X11455777Y-13815674D01*
X11455777Y-13815674D02*
X11465301Y-13834722D01*
X11465301Y-13834722D02*
X11465301Y-13939484D01*
X11465301Y-13834722D02*
X11474824Y-13815674D01*
X11474824Y-13815674D02*
X11493872Y-13806150D01*
X11493872Y-13806150D02*
X11522443Y-13806150D01*
X11522443Y-13806150D02*
X11541491Y-13815674D01*
X11541491Y-13815674D02*
X11551015Y-13834722D01*
X11551015Y-13834722D02*
X11551015Y-13939484D01*
X11941491Y-13729960D02*
X11770063Y-13987103D01*
X12198634Y-13739484D02*
X12217682Y-13739484D01*
X12217682Y-13739484D02*
X12236729Y-13749008D01*
X12236729Y-13749008D02*
X12246253Y-13758531D01*
X12246253Y-13758531D02*
X12255777Y-13777579D01*
X12255777Y-13777579D02*
X12265301Y-13815674D01*
X12265301Y-13815674D02*
X12265301Y-13863293D01*
X12265301Y-13863293D02*
X12255777Y-13901388D01*
X12255777Y-13901388D02*
X12246253Y-13920436D01*
X12246253Y-13920436D02*
X12236729Y-13929960D01*
X12236729Y-13929960D02*
X12217682Y-13939484D01*
X12217682Y-13939484D02*
X12198634Y-13939484D01*
X12198634Y-13939484D02*
X12179586Y-13929960D01*
X12179586Y-13929960D02*
X12170063Y-13920436D01*
X12170063Y-13920436D02*
X12160539Y-13901388D01*
X12160539Y-13901388D02*
X12151015Y-13863293D01*
X12151015Y-13863293D02*
X12151015Y-13815674D01*
X12151015Y-13815674D02*
X12160539Y-13777579D01*
X12160539Y-13777579D02*
X12170063Y-13758531D01*
X12170063Y-13758531D02*
X12179586Y-13749008D01*
X12179586Y-13749008D02*
X12198634Y-13739484D01*
X12351015Y-13920436D02*
X12360539Y-13929960D01*
X12360539Y-13929960D02*
X12351015Y-13939484D01*
X12351015Y-13939484D02*
X12341491Y-13929960D01*
X12341491Y-13929960D02*
X12351015Y-13920436D01*
X12351015Y-13920436D02*
X12351015Y-13939484D01*
X12484348Y-13739484D02*
X12503396Y-13739484D01*
X12503396Y-13739484D02*
X12522444Y-13749008D01*
X12522444Y-13749008D02*
X12531967Y-13758531D01*
X12531967Y-13758531D02*
X12541491Y-13777579D01*
X12541491Y-13777579D02*
X12551015Y-13815674D01*
X12551015Y-13815674D02*
X12551015Y-13863293D01*
X12551015Y-13863293D02*
X12541491Y-13901388D01*
X12541491Y-13901388D02*
X12531967Y-13920436D01*
X12531967Y-13920436D02*
X12522444Y-13929960D01*
X12522444Y-13929960D02*
X12503396Y-13939484D01*
X12503396Y-13939484D02*
X12484348Y-13939484D01*
X12484348Y-13939484D02*
X12465301Y-13929960D01*
X12465301Y-13929960D02*
X12455777Y-13920436D01*
X12455777Y-13920436D02*
X12446253Y-13901388D01*
X12446253Y-13901388D02*
X12436729Y-13863293D01*
X12436729Y-13863293D02*
X12436729Y-13815674D01*
X12436729Y-13815674D02*
X12446253Y-13777579D01*
X12446253Y-13777579D02*
X12455777Y-13758531D01*
X12455777Y-13758531D02*
X12465301Y-13749008D01*
X12465301Y-13749008D02*
X12484348Y-13739484D01*
X12722444Y-13806150D02*
X12722444Y-13939484D01*
X12674825Y-13729960D02*
X12627206Y-13872817D01*
X12627206Y-13872817D02*
X12751015Y-13872817D01*
X12865301Y-13739484D02*
X12884348Y-13739484D01*
X12884348Y-13739484D02*
X12903396Y-13749008D01*
X12903396Y-13749008D02*
X12912920Y-13758531D01*
X12912920Y-13758531D02*
X12922444Y-13777579D01*
X12922444Y-13777579D02*
X12931967Y-13815674D01*
X12931967Y-13815674D02*
X12931967Y-13863293D01*
X12931967Y-13863293D02*
X12922444Y-13901388D01*
X12922444Y-13901388D02*
X12912920Y-13920436D01*
X12912920Y-13920436D02*
X12903396Y-13929960D01*
X12903396Y-13929960D02*
X12884348Y-13939484D01*
X12884348Y-13939484D02*
X12865301Y-13939484D01*
X12865301Y-13939484D02*
X12846253Y-13929960D01*
X12846253Y-13929960D02*
X12836729Y-13920436D01*
X12836729Y-13920436D02*
X12827206Y-13901388D01*
X12827206Y-13901388D02*
X12817682Y-13863293D01*
X12817682Y-13863293D02*
X12817682Y-13815674D01*
X12817682Y-13815674D02*
X12827206Y-13777579D01*
X12827206Y-13777579D02*
X12836729Y-13758531D01*
X12836729Y-13758531D02*
X12846253Y-13749008D01*
X12846253Y-13749008D02*
X12865301Y-13739484D01*
X13008158Y-13758531D02*
X13017682Y-13749008D01*
X13017682Y-13749008D02*
X13036729Y-13739484D01*
X13036729Y-13739484D02*
X13084348Y-13739484D01*
X13084348Y-13739484D02*
X13103396Y-13749008D01*
X13103396Y-13749008D02*
X13112920Y-13758531D01*
X13112920Y-13758531D02*
X13122444Y-13777579D01*
X13122444Y-13777579D02*
X13122444Y-13796627D01*
X13122444Y-13796627D02*
X13112920Y-13825198D01*
X13112920Y-13825198D02*
X12998634Y-13939484D01*
X12998634Y-13939484D02*
X13122444Y-13939484D01*
X13198634Y-13739484D02*
X13198634Y-13777579D01*
X13274825Y-13739484D02*
X13274825Y-13777579D01*
X13570063Y-14015674D02*
X13560539Y-14006150D01*
X13560539Y-14006150D02*
X13541491Y-13977579D01*
X13541491Y-13977579D02*
X13531968Y-13958531D01*
X13531968Y-13958531D02*
X13522444Y-13929960D01*
X13522444Y-13929960D02*
X13512920Y-13882341D01*
X13512920Y-13882341D02*
X13512920Y-13844246D01*
X13512920Y-13844246D02*
X13522444Y-13796627D01*
X13522444Y-13796627D02*
X13531968Y-13768055D01*
X13531968Y-13768055D02*
X13541491Y-13749008D01*
X13541491Y-13749008D02*
X13560539Y-13720436D01*
X13560539Y-13720436D02*
X13570063Y-13710912D01*
X13751015Y-13939484D02*
X13636729Y-13939484D01*
X13693872Y-13939484D02*
X13693872Y-13739484D01*
X13693872Y-13739484D02*
X13674825Y-13768055D01*
X13674825Y-13768055D02*
X13655777Y-13787103D01*
X13655777Y-13787103D02*
X13636729Y-13796627D01*
X13922444Y-13739484D02*
X13884348Y-13739484D01*
X13884348Y-13739484D02*
X13865301Y-13749008D01*
X13865301Y-13749008D02*
X13855777Y-13758531D01*
X13855777Y-13758531D02*
X13836729Y-13787103D01*
X13836729Y-13787103D02*
X13827206Y-13825198D01*
X13827206Y-13825198D02*
X13827206Y-13901388D01*
X13827206Y-13901388D02*
X13836729Y-13920436D01*
X13836729Y-13920436D02*
X13846253Y-13929960D01*
X13846253Y-13929960D02*
X13865301Y-13939484D01*
X13865301Y-13939484D02*
X13903396Y-13939484D01*
X13903396Y-13939484D02*
X13922444Y-13929960D01*
X13922444Y-13929960D02*
X13931968Y-13920436D01*
X13931968Y-13920436D02*
X13941491Y-13901388D01*
X13941491Y-13901388D02*
X13941491Y-13853769D01*
X13941491Y-13853769D02*
X13931968Y-13834722D01*
X13931968Y-13834722D02*
X13922444Y-13825198D01*
X13922444Y-13825198D02*
X13903396Y-13815674D01*
X13903396Y-13815674D02*
X13865301Y-13815674D01*
X13865301Y-13815674D02*
X13846253Y-13825198D01*
X13846253Y-13825198D02*
X13836729Y-13834722D01*
X13836729Y-13834722D02*
X13827206Y-13853769D01*
X14179587Y-13939484D02*
X14179587Y-13739484D01*
X14265301Y-13939484D02*
X14265301Y-13834722D01*
X14265301Y-13834722D02*
X14255777Y-13815674D01*
X14255777Y-13815674D02*
X14236730Y-13806150D01*
X14236730Y-13806150D02*
X14208158Y-13806150D01*
X14208158Y-13806150D02*
X14189110Y-13815674D01*
X14189110Y-13815674D02*
X14179587Y-13825198D01*
X14389110Y-13939484D02*
X14370063Y-13929960D01*
X14370063Y-13929960D02*
X14360539Y-13920436D01*
X14360539Y-13920436D02*
X14351015Y-13901388D01*
X14351015Y-13901388D02*
X14351015Y-13844246D01*
X14351015Y-13844246D02*
X14360539Y-13825198D01*
X14360539Y-13825198D02*
X14370063Y-13815674D01*
X14370063Y-13815674D02*
X14389110Y-13806150D01*
X14389110Y-13806150D02*
X14417682Y-13806150D01*
X14417682Y-13806150D02*
X14436730Y-13815674D01*
X14436730Y-13815674D02*
X14446253Y-13825198D01*
X14446253Y-13825198D02*
X14455777Y-13844246D01*
X14455777Y-13844246D02*
X14455777Y-13901388D01*
X14455777Y-13901388D02*
X14446253Y-13920436D01*
X14446253Y-13920436D02*
X14436730Y-13929960D01*
X14436730Y-13929960D02*
X14417682Y-13939484D01*
X14417682Y-13939484D02*
X14389110Y-13939484D01*
X14570063Y-13939484D02*
X14551015Y-13929960D01*
X14551015Y-13929960D02*
X14541491Y-13910912D01*
X14541491Y-13910912D02*
X14541491Y-13739484D01*
X14722444Y-13929960D02*
X14703396Y-13939484D01*
X14703396Y-13939484D02*
X14665301Y-13939484D01*
X14665301Y-13939484D02*
X14646253Y-13929960D01*
X14646253Y-13929960D02*
X14636730Y-13910912D01*
X14636730Y-13910912D02*
X14636730Y-13834722D01*
X14636730Y-13834722D02*
X14646253Y-13815674D01*
X14646253Y-13815674D02*
X14665301Y-13806150D01*
X14665301Y-13806150D02*
X14703396Y-13806150D01*
X14703396Y-13806150D02*
X14722444Y-13815674D01*
X14722444Y-13815674D02*
X14731968Y-13834722D01*
X14731968Y-13834722D02*
X14731968Y-13853769D01*
X14731968Y-13853769D02*
X14636730Y-13872817D01*
X14808158Y-13929960D02*
X14827206Y-13939484D01*
X14827206Y-13939484D02*
X14865301Y-13939484D01*
X14865301Y-13939484D02*
X14884349Y-13929960D01*
X14884349Y-13929960D02*
X14893872Y-13910912D01*
X14893872Y-13910912D02*
X14893872Y-13901388D01*
X14893872Y-13901388D02*
X14884349Y-13882341D01*
X14884349Y-13882341D02*
X14865301Y-13872817D01*
X14865301Y-13872817D02*
X14836730Y-13872817D01*
X14836730Y-13872817D02*
X14817682Y-13863293D01*
X14817682Y-13863293D02*
X14808158Y-13844246D01*
X14808158Y-13844246D02*
X14808158Y-13834722D01*
X14808158Y-13834722D02*
X14817682Y-13815674D01*
X14817682Y-13815674D02*
X14836730Y-13806150D01*
X14836730Y-13806150D02*
X14865301Y-13806150D01*
X14865301Y-13806150D02*
X14884349Y-13815674D01*
X14960539Y-14015674D02*
X14970063Y-14006150D01*
X14970063Y-14006150D02*
X14989111Y-13977579D01*
X14989111Y-13977579D02*
X14998634Y-13958531D01*
X14998634Y-13958531D02*
X15008158Y-13929960D01*
X15008158Y-13929960D02*
X15017682Y-13882341D01*
X15017682Y-13882341D02*
X15017682Y-13844246D01*
X15017682Y-13844246D02*
X15008158Y-13796627D01*
X15008158Y-13796627D02*
X14998634Y-13768055D01*
X14998634Y-13768055D02*
X14989111Y-13749008D01*
X14989111Y-13749008D02*
X14970063Y-13720436D01*
X14970063Y-13720436D02*
X14960539Y-13710912D01*
D14*
X9969372Y-14173872D02*
X9969372Y-14050128D01*
X9845628Y-14050128D01*
X9845628Y-14173872D01*
X9969372Y-14173872D01*
D11*
X10360539Y-14203484D02*
X10246253Y-14203484D01*
X10303396Y-14203484D02*
X10303396Y-14003484D01*
X10303396Y-14003484D02*
X10284348Y-14032055D01*
X10284348Y-14032055D02*
X10265301Y-14051103D01*
X10265301Y-14051103D02*
X10246253Y-14060627D01*
X10446253Y-14184436D02*
X10455777Y-14193960D01*
X10455777Y-14193960D02*
X10446253Y-14203484D01*
X10446253Y-14203484D02*
X10436729Y-14193960D01*
X10436729Y-14193960D02*
X10446253Y-14184436D01*
X10446253Y-14184436D02*
X10446253Y-14203484D01*
X10522444Y-14003484D02*
X10655777Y-14003484D01*
X10655777Y-14003484D02*
X10570063Y-14203484D01*
X10827205Y-14003484D02*
X10731967Y-14003484D01*
X10731967Y-14003484D02*
X10722444Y-14098722D01*
X10722444Y-14098722D02*
X10731967Y-14089198D01*
X10731967Y-14089198D02*
X10751015Y-14079674D01*
X10751015Y-14079674D02*
X10798634Y-14079674D01*
X10798634Y-14079674D02*
X10817682Y-14089198D01*
X10817682Y-14089198D02*
X10827205Y-14098722D01*
X10827205Y-14098722D02*
X10836729Y-14117769D01*
X10836729Y-14117769D02*
X10836729Y-14165388D01*
X10836729Y-14165388D02*
X10827205Y-14184436D01*
X10827205Y-14184436D02*
X10817682Y-14193960D01*
X10817682Y-14193960D02*
X10798634Y-14203484D01*
X10798634Y-14203484D02*
X10751015Y-14203484D01*
X10751015Y-14203484D02*
X10731967Y-14193960D01*
X10731967Y-14193960D02*
X10722444Y-14184436D01*
X10960539Y-14003484D02*
X10979586Y-14003484D01*
X10979586Y-14003484D02*
X10998634Y-14013008D01*
X10998634Y-14013008D02*
X11008158Y-14022531D01*
X11008158Y-14022531D02*
X11017682Y-14041579D01*
X11017682Y-14041579D02*
X11027205Y-14079674D01*
X11027205Y-14079674D02*
X11027205Y-14127293D01*
X11027205Y-14127293D02*
X11017682Y-14165388D01*
X11017682Y-14165388D02*
X11008158Y-14184436D01*
X11008158Y-14184436D02*
X10998634Y-14193960D01*
X10998634Y-14193960D02*
X10979586Y-14203484D01*
X10979586Y-14203484D02*
X10960539Y-14203484D01*
X10960539Y-14203484D02*
X10941491Y-14193960D01*
X10941491Y-14193960D02*
X10931967Y-14184436D01*
X10931967Y-14184436D02*
X10922444Y-14165388D01*
X10922444Y-14165388D02*
X10912920Y-14127293D01*
X10912920Y-14127293D02*
X10912920Y-14079674D01*
X10912920Y-14079674D02*
X10922444Y-14041579D01*
X10922444Y-14041579D02*
X10931967Y-14022531D01*
X10931967Y-14022531D02*
X10941491Y-14013008D01*
X10941491Y-14013008D02*
X10960539Y-14003484D01*
X11112920Y-14203484D02*
X11112920Y-14070150D01*
X11112920Y-14089198D02*
X11122444Y-14079674D01*
X11122444Y-14079674D02*
X11141491Y-14070150D01*
X11141491Y-14070150D02*
X11170063Y-14070150D01*
X11170063Y-14070150D02*
X11189110Y-14079674D01*
X11189110Y-14079674D02*
X11198634Y-14098722D01*
X11198634Y-14098722D02*
X11198634Y-14203484D01*
X11198634Y-14098722D02*
X11208158Y-14079674D01*
X11208158Y-14079674D02*
X11227205Y-14070150D01*
X11227205Y-14070150D02*
X11255777Y-14070150D01*
X11255777Y-14070150D02*
X11274824Y-14079674D01*
X11274824Y-14079674D02*
X11284348Y-14098722D01*
X11284348Y-14098722D02*
X11284348Y-14203484D01*
X11379586Y-14203484D02*
X11379586Y-14070150D01*
X11379586Y-14089198D02*
X11389110Y-14079674D01*
X11389110Y-14079674D02*
X11408158Y-14070150D01*
X11408158Y-14070150D02*
X11436729Y-14070150D01*
X11436729Y-14070150D02*
X11455777Y-14079674D01*
X11455777Y-14079674D02*
X11465301Y-14098722D01*
X11465301Y-14098722D02*
X11465301Y-14203484D01*
X11465301Y-14098722D02*
X11474824Y-14079674D01*
X11474824Y-14079674D02*
X11493872Y-14070150D01*
X11493872Y-14070150D02*
X11522443Y-14070150D01*
X11522443Y-14070150D02*
X11541491Y-14079674D01*
X11541491Y-14079674D02*
X11551015Y-14098722D01*
X11551015Y-14098722D02*
X11551015Y-14203484D01*
X11941491Y-13993960D02*
X11770063Y-14251103D01*
X12198634Y-14003484D02*
X12217682Y-14003484D01*
X12217682Y-14003484D02*
X12236729Y-14013008D01*
X12236729Y-14013008D02*
X12246253Y-14022531D01*
X12246253Y-14022531D02*
X12255777Y-14041579D01*
X12255777Y-14041579D02*
X12265301Y-14079674D01*
X12265301Y-14079674D02*
X12265301Y-14127293D01*
X12265301Y-14127293D02*
X12255777Y-14165388D01*
X12255777Y-14165388D02*
X12246253Y-14184436D01*
X12246253Y-14184436D02*
X12236729Y-14193960D01*
X12236729Y-14193960D02*
X12217682Y-14203484D01*
X12217682Y-14203484D02*
X12198634Y-14203484D01*
X12198634Y-14203484D02*
X12179586Y-14193960D01*
X12179586Y-14193960D02*
X12170063Y-14184436D01*
X12170063Y-14184436D02*
X12160539Y-14165388D01*
X12160539Y-14165388D02*
X12151015Y-14127293D01*
X12151015Y-14127293D02*
X12151015Y-14079674D01*
X12151015Y-14079674D02*
X12160539Y-14041579D01*
X12160539Y-14041579D02*
X12170063Y-14022531D01*
X12170063Y-14022531D02*
X12179586Y-14013008D01*
X12179586Y-14013008D02*
X12198634Y-14003484D01*
X12351015Y-14184436D02*
X12360539Y-14193960D01*
X12360539Y-14193960D02*
X12351015Y-14203484D01*
X12351015Y-14203484D02*
X12341491Y-14193960D01*
X12341491Y-14193960D02*
X12351015Y-14184436D01*
X12351015Y-14184436D02*
X12351015Y-14203484D01*
X12484348Y-14003484D02*
X12503396Y-14003484D01*
X12503396Y-14003484D02*
X12522444Y-14013008D01*
X12522444Y-14013008D02*
X12531967Y-14022531D01*
X12531967Y-14022531D02*
X12541491Y-14041579D01*
X12541491Y-14041579D02*
X12551015Y-14079674D01*
X12551015Y-14079674D02*
X12551015Y-14127293D01*
X12551015Y-14127293D02*
X12541491Y-14165388D01*
X12541491Y-14165388D02*
X12531967Y-14184436D01*
X12531967Y-14184436D02*
X12522444Y-14193960D01*
X12522444Y-14193960D02*
X12503396Y-14203484D01*
X12503396Y-14203484D02*
X12484348Y-14203484D01*
X12484348Y-14203484D02*
X12465301Y-14193960D01*
X12465301Y-14193960D02*
X12455777Y-14184436D01*
X12455777Y-14184436D02*
X12446253Y-14165388D01*
X12446253Y-14165388D02*
X12436729Y-14127293D01*
X12436729Y-14127293D02*
X12436729Y-14079674D01*
X12436729Y-14079674D02*
X12446253Y-14041579D01*
X12446253Y-14041579D02*
X12455777Y-14022531D01*
X12455777Y-14022531D02*
X12465301Y-14013008D01*
X12465301Y-14013008D02*
X12484348Y-14003484D01*
X12722444Y-14003484D02*
X12684348Y-14003484D01*
X12684348Y-14003484D02*
X12665301Y-14013008D01*
X12665301Y-14013008D02*
X12655777Y-14022531D01*
X12655777Y-14022531D02*
X12636729Y-14051103D01*
X12636729Y-14051103D02*
X12627206Y-14089198D01*
X12627206Y-14089198D02*
X12627206Y-14165388D01*
X12627206Y-14165388D02*
X12636729Y-14184436D01*
X12636729Y-14184436D02*
X12646253Y-14193960D01*
X12646253Y-14193960D02*
X12665301Y-14203484D01*
X12665301Y-14203484D02*
X12703396Y-14203484D01*
X12703396Y-14203484D02*
X12722444Y-14193960D01*
X12722444Y-14193960D02*
X12731967Y-14184436D01*
X12731967Y-14184436D02*
X12741491Y-14165388D01*
X12741491Y-14165388D02*
X12741491Y-14117769D01*
X12741491Y-14117769D02*
X12731967Y-14098722D01*
X12731967Y-14098722D02*
X12722444Y-14089198D01*
X12722444Y-14089198D02*
X12703396Y-14079674D01*
X12703396Y-14079674D02*
X12665301Y-14079674D01*
X12665301Y-14079674D02*
X12646253Y-14089198D01*
X12646253Y-14089198D02*
X12636729Y-14098722D01*
X12636729Y-14098722D02*
X12627206Y-14117769D01*
X12855777Y-14089198D02*
X12836729Y-14079674D01*
X12836729Y-14079674D02*
X12827206Y-14070150D01*
X12827206Y-14070150D02*
X12817682Y-14051103D01*
X12817682Y-14051103D02*
X12817682Y-14041579D01*
X12817682Y-14041579D02*
X12827206Y-14022531D01*
X12827206Y-14022531D02*
X12836729Y-14013008D01*
X12836729Y-14013008D02*
X12855777Y-14003484D01*
X12855777Y-14003484D02*
X12893872Y-14003484D01*
X12893872Y-14003484D02*
X12912920Y-14013008D01*
X12912920Y-14013008D02*
X12922444Y-14022531D01*
X12922444Y-14022531D02*
X12931967Y-14041579D01*
X12931967Y-14041579D02*
X12931967Y-14051103D01*
X12931967Y-14051103D02*
X12922444Y-14070150D01*
X12922444Y-14070150D02*
X12912920Y-14079674D01*
X12912920Y-14079674D02*
X12893872Y-14089198D01*
X12893872Y-14089198D02*
X12855777Y-14089198D01*
X12855777Y-14089198D02*
X12836729Y-14098722D01*
X12836729Y-14098722D02*
X12827206Y-14108246D01*
X12827206Y-14108246D02*
X12817682Y-14127293D01*
X12817682Y-14127293D02*
X12817682Y-14165388D01*
X12817682Y-14165388D02*
X12827206Y-14184436D01*
X12827206Y-14184436D02*
X12836729Y-14193960D01*
X12836729Y-14193960D02*
X12855777Y-14203484D01*
X12855777Y-14203484D02*
X12893872Y-14203484D01*
X12893872Y-14203484D02*
X12912920Y-14193960D01*
X12912920Y-14193960D02*
X12922444Y-14184436D01*
X12922444Y-14184436D02*
X12931967Y-14165388D01*
X12931967Y-14165388D02*
X12931967Y-14127293D01*
X12931967Y-14127293D02*
X12922444Y-14108246D01*
X12922444Y-14108246D02*
X12912920Y-14098722D01*
X12912920Y-14098722D02*
X12893872Y-14089198D01*
X13027206Y-14203484D02*
X13065301Y-14203484D01*
X13065301Y-14203484D02*
X13084348Y-14193960D01*
X13084348Y-14193960D02*
X13093872Y-14184436D01*
X13093872Y-14184436D02*
X13112920Y-14155865D01*
X13112920Y-14155865D02*
X13122444Y-14117769D01*
X13122444Y-14117769D02*
X13122444Y-14041579D01*
X13122444Y-14041579D02*
X13112920Y-14022531D01*
X13112920Y-14022531D02*
X13103396Y-14013008D01*
X13103396Y-14013008D02*
X13084348Y-14003484D01*
X13084348Y-14003484D02*
X13046253Y-14003484D01*
X13046253Y-14003484D02*
X13027206Y-14013008D01*
X13027206Y-14013008D02*
X13017682Y-14022531D01*
X13017682Y-14022531D02*
X13008158Y-14041579D01*
X13008158Y-14041579D02*
X13008158Y-14089198D01*
X13008158Y-14089198D02*
X13017682Y-14108246D01*
X13017682Y-14108246D02*
X13027206Y-14117769D01*
X13027206Y-14117769D02*
X13046253Y-14127293D01*
X13046253Y-14127293D02*
X13084348Y-14127293D01*
X13084348Y-14127293D02*
X13103396Y-14117769D01*
X13103396Y-14117769D02*
X13112920Y-14108246D01*
X13112920Y-14108246D02*
X13122444Y-14089198D01*
X13198634Y-14003484D02*
X13198634Y-14041579D01*
X13274825Y-14003484D02*
X13274825Y-14041579D01*
X13570063Y-14279674D02*
X13560539Y-14270150D01*
X13560539Y-14270150D02*
X13541491Y-14241579D01*
X13541491Y-14241579D02*
X13531968Y-14222531D01*
X13531968Y-14222531D02*
X13522444Y-14193960D01*
X13522444Y-14193960D02*
X13512920Y-14146341D01*
X13512920Y-14146341D02*
X13512920Y-14108246D01*
X13512920Y-14108246D02*
X13522444Y-14060627D01*
X13522444Y-14060627D02*
X13531968Y-14032055D01*
X13531968Y-14032055D02*
X13541491Y-14013008D01*
X13541491Y-14013008D02*
X13560539Y-13984436D01*
X13560539Y-13984436D02*
X13570063Y-13974912D01*
X13731968Y-14070150D02*
X13731968Y-14203484D01*
X13684348Y-13993960D02*
X13636729Y-14136817D01*
X13636729Y-14136817D02*
X13760539Y-14136817D01*
X13989110Y-14203484D02*
X13989110Y-14003484D01*
X14074825Y-14203484D02*
X14074825Y-14098722D01*
X14074825Y-14098722D02*
X14065301Y-14079674D01*
X14065301Y-14079674D02*
X14046253Y-14070150D01*
X14046253Y-14070150D02*
X14017682Y-14070150D01*
X14017682Y-14070150D02*
X13998634Y-14079674D01*
X13998634Y-14079674D02*
X13989110Y-14089198D01*
X14198634Y-14203484D02*
X14179587Y-14193960D01*
X14179587Y-14193960D02*
X14170063Y-14184436D01*
X14170063Y-14184436D02*
X14160539Y-14165388D01*
X14160539Y-14165388D02*
X14160539Y-14108246D01*
X14160539Y-14108246D02*
X14170063Y-14089198D01*
X14170063Y-14089198D02*
X14179587Y-14079674D01*
X14179587Y-14079674D02*
X14198634Y-14070150D01*
X14198634Y-14070150D02*
X14227206Y-14070150D01*
X14227206Y-14070150D02*
X14246253Y-14079674D01*
X14246253Y-14079674D02*
X14255777Y-14089198D01*
X14255777Y-14089198D02*
X14265301Y-14108246D01*
X14265301Y-14108246D02*
X14265301Y-14165388D01*
X14265301Y-14165388D02*
X14255777Y-14184436D01*
X14255777Y-14184436D02*
X14246253Y-14193960D01*
X14246253Y-14193960D02*
X14227206Y-14203484D01*
X14227206Y-14203484D02*
X14198634Y-14203484D01*
X14379587Y-14203484D02*
X14360539Y-14193960D01*
X14360539Y-14193960D02*
X14351015Y-14174912D01*
X14351015Y-14174912D02*
X14351015Y-14003484D01*
X14531968Y-14193960D02*
X14512920Y-14203484D01*
X14512920Y-14203484D02*
X14474825Y-14203484D01*
X14474825Y-14203484D02*
X14455777Y-14193960D01*
X14455777Y-14193960D02*
X14446253Y-14174912D01*
X14446253Y-14174912D02*
X14446253Y-14098722D01*
X14446253Y-14098722D02*
X14455777Y-14079674D01*
X14455777Y-14079674D02*
X14474825Y-14070150D01*
X14474825Y-14070150D02*
X14512920Y-14070150D01*
X14512920Y-14070150D02*
X14531968Y-14079674D01*
X14531968Y-14079674D02*
X14541491Y-14098722D01*
X14541491Y-14098722D02*
X14541491Y-14117769D01*
X14541491Y-14117769D02*
X14446253Y-14136817D01*
X14617682Y-14193960D02*
X14636730Y-14203484D01*
X14636730Y-14203484D02*
X14674825Y-14203484D01*
X14674825Y-14203484D02*
X14693872Y-14193960D01*
X14693872Y-14193960D02*
X14703396Y-14174912D01*
X14703396Y-14174912D02*
X14703396Y-14165388D01*
X14703396Y-14165388D02*
X14693872Y-14146341D01*
X14693872Y-14146341D02*
X14674825Y-14136817D01*
X14674825Y-14136817D02*
X14646253Y-14136817D01*
X14646253Y-14136817D02*
X14627206Y-14127293D01*
X14627206Y-14127293D02*
X14617682Y-14108246D01*
X14617682Y-14108246D02*
X14617682Y-14098722D01*
X14617682Y-14098722D02*
X14627206Y-14079674D01*
X14627206Y-14079674D02*
X14646253Y-14070150D01*
X14646253Y-14070150D02*
X14674825Y-14070150D01*
X14674825Y-14070150D02*
X14693872Y-14079674D01*
X14770063Y-14279674D02*
X14779587Y-14270150D01*
X14779587Y-14270150D02*
X14798634Y-14241579D01*
X14798634Y-14241579D02*
X14808158Y-14222531D01*
X14808158Y-14222531D02*
X14817682Y-14193960D01*
X14817682Y-14193960D02*
X14827206Y-14146341D01*
X14827206Y-14146341D02*
X14827206Y-14108246D01*
X14827206Y-14108246D02*
X14817682Y-14060627D01*
X14817682Y-14060627D02*
X14808158Y-14032055D01*
X14808158Y-14032055D02*
X14798634Y-14013008D01*
X14798634Y-14013008D02*
X14779587Y-13984436D01*
X14779587Y-13984436D02*
X14770063Y-13974912D01*
M02*
